<svg width="336" height="289" viewBox="0 0 336 289" fill="none" xmlns="http://www.w3.org/2000/svg"><path fill-rule="evenodd" clip-rule="evenodd" d="M270.893 281.904c-.586.337-1.179.67-1.78 1l.002-.001a.76.76 0 0 1-1.121-.875.756.756 0 0 1 .394-.451c.587-.325 1.172-.654 1.754-.985a.695.695 0 0 1 .28-.111.696.696 0 0 1 .568.154.706.706 0 0 1 .185.238.75.75 0 0 1-.059.838.752.752 0 0 1-.223.193zm-10.439 5.175a.755.755 0 0 1-.35.441l-.033.026c-.612.287-1.224.574-1.843.857a.76.76 0 0 1-.581.027.755.755 0 0 1-.427-.394.754.754 0 0 1 .125-.836.753.753 0 0 1 .242-.172l1.83-.855a.757.757 0 0 1 1.037.906zm19.1-10.504l-.058.031.003.001a.76.76 0 0 1-1.015-.27.755.755 0 0 1 .233-1.025c.559-.372 1.116-.747 1.669-1.124a.729.729 0 0 1 .567-.126.735.735 0 0 1 .484.322.75.75 0 0 1 .119.567.76.76 0 0 1-.317.485c-.556.383-1.119.764-1.685 1.139zm9.869-7.181a.718.718 0 0 1-.115.064l.005.01a.755.755 0 0 1-.836-1.257 136.53 136.53 0 0 0 1.563-1.268.763.763 0 0 1 .838-.085.763.763 0 0 1 .314 1.024.763.763 0 0 1-.187.229c-.522.434-1.049.857-1.582 1.283zm9.165-8.065a.696.696 0 0 1-.161.12l-.002.001a.755.755 0 0 1-1.117-.73.756.756 0 0 1 .231-.481c.481-.465.961-.935 1.434-1.407a.75.75 0 0 1 .539-.236.765.765 0 0 1 .546.221.769.769 0 0 1 .221.546.764.764 0 0 1-.236.539c-.478.479-.963.955-1.455 1.427zm8.356-8.897a.798.798 0 0 1-.214.174l-.024-.001a.756.756 0 0 1-1.115-.672c0-.176.061-.346.173-.481.436-.514.87-1.03 1.302-1.55a.76.76 0 1 1 1.174.97 56.03 56.03 0 0 1-1.296 1.56zm7.427-9.7a.745.745 0 0 1-.258.235l-.007-.007a.755.755 0 0 1-.928-.154.76.76 0 0 1-.061-.939c.382-.55.757-1.105 1.126-1.665a.752.752 0 0 1 1.065-.241.749.749 0 0 1 .327.494.754.754 0 0 1-.129.579 82.18 82.18 0 0 1-1.135 1.698zm6.39-10.415a.755.755 0 0 1-.301.305.756.756 0 0 1-.896-.129.76.76 0 0 1-.136-.895c.323-.593.64-1.184.947-1.777a.755.755 0 0 1 1.393.12.757.757 0 0 1-.049.577c-.314.602-.633 1.202-.958 1.799zm5.261-11.027a.761.761 0 0 1-.333.373l-.008.005a.754.754 0 0 1-1.1-.498.758.758 0 0 1 .039-.456c.256-.622.508-1.241.754-1.868a.755.755 0 0 1 .984-.431.777.777 0 0 1 .25.161.765.765 0 0 1 .173.827c-.244.629-.501 1.259-.759 1.887zm4.082-11.521a.755.755 0 0 1-.362.448l-.004-.011a.758.758 0 0 1-1.089-.879l.561-1.921a.753.753 0 0 1 1.209-.421.746.746 0 0 1 .248.824c-.177.66-.365 1.314-.563 1.96zm2.74-11.573a.741.741 0 0 1-.25.219l.007-.001a.74.74 0 0 1-.499.075.75.75 0 0 1-.486-.315.762.762 0 0 1-.12-.566c.122-.662.24-1.323.352-1.981a.757.757 0 0 1 1.488.261c-.114.668-.234 1.336-.36 2.003a.751.751 0 0 1-.132.305zm1.662-12.06a.756.756 0 0 1-.27.251l-.002.001a.761.761 0 0 1-1.119-.731c.059-.667.112-1.334.157-2.001a.758.758 0 1 1 1.513.107c-.048.675-.101 1.35-.159 2.026a.755.755 0 0 1-.12.347zm.466-12.158a.76.76 0 0 1-.291.283l.003-.005a.75.75 0 0 1-.745-.011.75.75 0 0 1-.377-.643c-.009-.68-.02-1.338-.038-2.009a.755.755 0 0 1 1.283-.583.76.76 0 0 1 .229.542c.015.681.028 1.358.039 2.033a.762.762 0 0 1-.103.393zm-.717-12.149a.765.765 0 0 1-.314.316l.01-.003a.736.736 0 0 1-.294.083.756.756 0 0 1-.834-.669 79.522 79.522 0 0 0-.234-1.997.76.76 0 0 1 .379-.755.758.758 0 0 1 1.131.566c.084.67.163 1.344.236 2.021a.756.756 0 0 1-.08.438zm-1.871-12.024a.76.76 0 0 1-.322.348.887.887 0 0 1-.212.073.76.76 0 0 1-.896-.585c-.134-.656-.274-1.311-.42-1.964a.764.764 0 0 1 .567-.932.754.754 0 0 1 .909.605c.148.661.29 1.323.427 1.984a.755.755 0 0 1-.053.471zm-3.005-11.788a.757.757 0 0 1-.339.38l.001-.004a.73.73 0 0 1-.142.065.77.77 0 0 1-.577-.054.766.766 0 0 1-.369-.447c-.197-.641-.4-1.278-.607-1.912a.757.757 0 1 1 1.441-.47c.21.641.415 1.286.614 1.933a.76.76 0 0 1-.022.509zm-4.117-11.448a.754.754 0 0 1-.349.414l.003-.004a.768.768 0 0 1-.074.041.758.758 0 0 1-.99-.408c-.26-.621-.52-1.234-.788-1.845a.759.759 0 0 1-.016-.581.752.752 0 0 1 .406-.415.753.753 0 0 1 .994.391c.271.619.537 1.241.799 1.866a.754.754 0 0 1 .015.541zm-5.346-10.733a.745.745 0 0 1-.226.188l-.003-.006a.754.754 0 0 1-.837-.079.767.767 0 0 1-.189-.227l-.408-.745-.556-1.015a.747.747 0 0 1 .066-.838.74.74 0 0 1 .797-.255.76.76 0 0 1 .452.357l.566 1.033.413.753a.769.769 0 0 1 .062.574.739.739 0 0 1-.137.26zm-6.525-10.194a.398.398 0 0 0 .064-.035l-.064.035zm-7.222-9.744a.756.756 0 0 1-1.066-.085c-.434-.508-.873-1.015-1.316-1.514a.755.755 0 0 1 .074-1.059.757.757 0 0 1 1.06.056c.451.508.893 1.022 1.334 1.536a.77.77 0 0 1 .178.55.76.76 0 0 1-.264.516zM205.78 141.08l-.012.007a.762.762 0 0 1-.559.043.756.756 0 0 1-.18-1.362 8.048 8.048 0 0 0 1.48-1.101.758.758 0 1 1 1.034 1.106 9.356 9.356 0 0 1-1.763 1.307zm92.08-54.017a.787.787 0 0 1-.188.149l-.004-.003a.756.756 0 0 1-.876-.112l-.271-.251a45.932 45.932 0 0 0-1.213-1.103.76.76 0 0 1 1.014-1.128c.503.453 1.003.913 1.502 1.377a.762.762 0 0 1 .036 1.072zm-101.505 53.431a.76.76 0 0 1-.291.288l-.005-.003a.76.76 0 0 1-.685.026c-.632-.3-1.249-.631-1.848-.993a.761.761 0 0 1-.259-1.04.758.758 0 0 1 1.04-.259 18.85 18.85 0 0 0 1.715.923.754.754 0 0 1 .333 1.058zm15.7-9.76a.757.757 0 0 1-.242.208l-.004-.003a.747.747 0 0 1-.519.064.761.761 0 0 1-.581-.609.751.751 0 0 1 .008-.295c.139-.62.266-1.268.38-1.946a.768.768 0 0 1 .297-.527.744.744 0 0 1 .874-.028.755.755 0 0 1 .317.816c-.118.708-.25 1.385-.396 2.031a.742.742 0 0 1-.134.289zm76.504-51.467a.771.771 0 0 1-.248.22l-.003-.002a.756.756 0 0 1-.807-.05 84.86 84.86 0 0 0-1.635-1.163.747.747 0 0 1-.329-.489.76.76 0 0 1 .12-.576.756.756 0 0 1 1.071-.179c.558.388 1.113.782 1.664 1.183a.755.755 0 0 1 .167 1.056zm-101.774 53.857a.699.699 0 0 1-.133.095l-.003-.001a.761.761 0 0 1-.928-.167 41.072 41.072 0 0 1-1.319-1.578.755.755 0 0 1-.091-.852.754.754 0 0 1 .761-.391.765.765 0 0 1 .511.297c.42.522.846 1.034 1.278 1.528a.762.762 0 0 1-.076 1.069zm26.357-14.549a.75.75 0 0 1-.294.289l-.004-.001a.758.758 0 0 1-1.117-.64 51.918 51.918 0 0 0-.106-1.994.746.746 0 0 1 .413-.731.745.745 0 0 1 .285-.076.748.748 0 0 1 .552.181.754.754 0 0 1 .262.518c.05.677.085 1.362.106 2.053a.76.76 0 0 1-.097.401zm65.208-45.857a.767.767 0 0 1-.291.281l-.015.003a.754.754 0 0 1-.716-.011 84.716 84.716 0 0 0-1.778-.94.75.75 0 0 1-.389-.442.751.751 0 0 1 .045-.586.758.758 0 0 1 1.037-.317c.606.311 1.208.63 1.805.954a.763.763 0 0 1 .407.667.767.767 0 0 1-.105.39zm-67.082 33.802a.762.762 0 0 1-.337.378l-.013.005a.75.75 0 0 1-1.074-.453 42.653 42.653 0 0 0-.62-1.892.76.76 0 0 1 .465-.965.756.756 0 0 1 .965.464c.226.647.438 1.3.638 1.958a.762.762 0 0 1-.024.505zm-31.007 16.188a.761.761 0 0 1-.359.44l-.018.012a.739.739 0 0 1-.577.049.756.756 0 0 1-.443-.374 64.292 64.292 0 0 1-.901-1.846.77.77 0 0 1 .366-1.007.766.766 0 0 1 .831.127.76.76 0 0 1 .175.239c.282.606.573 1.202.878 1.793a.76.76 0 0 1 .048.567zm87.06-55.07a.754.754 0 0 1-.3.302l-.015.003a.752.752 0 0 1-.616.042 81.51 81.51 0 0 0-1.892-.69.758.758 0 0 1 .503-1.426c.644.228 1.284.461 1.922.7a.763.763 0 0 1 .488.654.76.76 0 0 1-.09.416zm-61.355 28.206l-.037.02-.015.003a.76.76 0 0 1-.996-.266c-.35-.566-.71-1.125-1.083-1.673a.754.754 0 1 1 1.25-.85c.385.57.758 1.144 1.117 1.725a.758.758 0 0 1-.236 1.041zm-29.976 15.583a.756.756 0 0 1-.325.357l-.001.003a.762.762 0 0 1-.946-.18.749.749 0 0 1-.155-.308 41.302 41.302 0 0 1-.439-2.007.763.763 0 0 1 .102-.581.758.758 0 0 1 1.382.286c.129.652.271 1.301.425 1.948a.754.754 0 0 1-.043.482zm79.719-47.305a.763.763 0 0 1-.314.324l-.03.01a.755.755 0 0 1-.496.066 68.536 68.536 0 0 0-1.966-.418.756.756 0 1 1 .3-1.484c.667.138 1.332.279 1.995.422a.756.756 0 0 1 .511 1.08zm-11.991-1.85a.764.764 0 0 1-.323.35l-.027.009a.767.767 0 0 1-.397.08 103.55 103.55 0 0 0-2.003-.142.757.757 0 0 1 .089-1.51c.68.04 1.359.088 2.035.142a.762.762 0 0 1 .678.598.769.769 0 0 1-.052.473zm-68.945 37.199a.753.753 0 0 1-.279.26l.001-.003a.755.755 0 0 1-1.034-.317.758.758 0 0 1-.084-.388c.038-.687.096-1.375.171-2.059a.755.755 0 0 1 .837-.667.76.76 0 0 1 .668.838 29.75 29.75 0 0 0-.164 1.972.76.76 0 0 1-.116.364zm23.811-13.241a.787.787 0 0 1-.164.122l-.028.008a.76.76 0 0 1-.882-.152 55.08 55.08 0 0 0-1.421-1.402.754.754 0 0 1-.025-1.07.76.76 0 0 1 1.07-.024c.493.472.98.953 1.458 1.438a.774.774 0 0 1 .221.541.771.771 0 0 1-.229.539zm33.007-24.156a.757.757 0 0 1-.336.37l-.026.012a.761.761 0 0 1-.301.079c-.675.034-1.347.074-2.009.117a.755.755 0 0 1-.728-.422.768.768 0 0 1-.038-.579.767.767 0 0 1 .383-.435.755.755 0 0 1 .286-.076c.67-.042 1.345-.081 2.033-.117a.757.757 0 0 1 .736 1.05zM177.613 87.63a.751.751 0 0 1-.328.355l.001.002a.753.753 0 0 1-.874-.108.75.75 0 0 1-.179-.863c.282-.628.584-1.25.907-1.863a.754.754 0 0 1 1.023-.316.755.755 0 0 1 .316 1.023 30.42 30.42 0 0 0-.866 1.77zm41.865-24.433a.757.757 0 0 1-.343.388.768.768 0 0 1-.267.073c-.667.091-1.33.19-1.988.296a.758.758 0 0 1-.234-1.485c.668-.097 1.338-.195 2.017-.299a.757.757 0 0 1 .815 1.027zm-30.063 15.06a.765.765 0 0 1-.251.213l.002.004a.76.76 0 0 1-.809-.049 84.74 84.74 0 0 0-1.636-1.16.754.754 0 0 1 .281-1.39.759.759 0 0 1 .578.145c.561.386 1.117.78 1.668 1.18a.748.748 0 0 1 .303.493.752.752 0 0 1-.136.563zm18.168-12.68a.756.756 0 0 1-.352.411l.003.001a.742.742 0 0 1-.172.065c-.654.177-1.297.36-1.929.551a.758.758 0 0 1-.942-.508.77.77 0 0 1 .508-.942c.644-.192 1.3-.38 1.964-.56a.756.756 0 0 1 .92.983zm-23.222 12.416a.754.754 0 0 1-.167.127l.005.008a.758.758 0 0 1-1.117-.725.762.762 0 0 1 .225-.48c.487-.47.991-.937 1.514-1.403a.761.761 0 0 1 .855-.141.76.76 0 0 1 .394.45.75.75 0 0 1-.254.829c-.503.433-.988.878-1.455 1.335zm11.827-8.271a.76.76 0 0 1-.347.442l-.035.02c-.61.294-1.209.584-1.784.9a.758.758 0 0 1-1.023-.317.744.744 0 0 1-.062-.579.727.727 0 0 1 .379-.442 54.16 54.16 0 0 1 1.832-.925.756.756 0 0 1 1.04.901zm-17.001 1.989a.749.749 0 0 1-.298.3l-.002-.01a.754.754 0 0 1-.724.01 99.91 99.91 0 0 0-1.773-.954.756.756 0 0 1 .704-1.34c.603.318 1.203.64 1.798.964a.76.76 0 0 1 .385.748.756.756 0 0 1-.09.281zm-10.93-5.31a.755.755 0 0 1-.299.293l-.004-.008a.758.758 0 0 1-.655.036c-.62-.267-1.241-.53-1.863-.788a.753.753 0 0 1-.517-.706.751.751 0 0 1 .494-.722.754.754 0 0 1 .604.034 200.5 200.5 0 0 1 1.876.794.76.76 0 0 1 .461.66.754.754 0 0 1-.097.407zm-11.343-4.39a.755.755 0 0 1-.303.305l-.005-.008a.758.758 0 0 1-.605.063c-.637-.22-1.273-.436-1.908-.65a.767.767 0 0 1-.45-.377.765.765 0 0 1 .105-.845.761.761 0 0 1 .825-.213c.642.214 1.28.431 1.92.653a.751.751 0 0 1 .509.65.754.754 0 0 1-.088.422zm-11.602-3.619a.76.76 0 0 1-.31.315l-.005-.008a.755.755 0 0 1-.563.072l-1.947-.53a.755.755 0 0 1-.535-.928.757.757 0 0 1 .928-.535l1.962.538a.755.755 0 0 1 .47 1.076zm-11.86-2.842a.755.755 0 0 1-.243.209l-.008-.015a.753.753 0 0 1-.519.088l-1.975-.434a.766.766 0 0 1-.497-.324.752.752 0 0 1-.111-.583.744.744 0 0 1 .343-.484.76.76 0 0 1 .587-.087l1.983.435a.763.763 0 0 1 .574.904.763.763 0 0 1-.134.29zm-11.856-2.51a.755.755 0 0 1-.315.333l-.008-.014a.759.759 0 0 1-.498.092l-1.992-.344a.756.756 0 1 1 .26-1.487l2.005.346a.756.756 0 0 1 .548 1.074zm-12.081-1.764a.773.773 0 0 1-.261.237l-.008-.015a.755.755 0 0 1-.468.093l-2-.249a.76.76 0 0 1-.634-.842.758.758 0 0 1 .822-.66l2.023.258a.758.758 0 0 1 .526 1.178z" fill="url(#a)"/><path d="M4.728 61.612L95.44.686 85.6 41.304 4.729 61.612z" fill="#E4E7FB"/><path d="M4.728 61.612l107.99 27.606-25.352-31.417-82.638 3.811z" fill="#E4E7FB"/><path d="M101.702 47.084l-16.1-5.78L4.726 61.612l82.638-3.81 14.337-10.718z" fill="url(#b)"/><path d="M101.702 47.084L4.727 61.612l82.638-3.81 14.337-10.718z" fill="url(#c)"/><defs><linearGradient id="a" x1="-193040" y1="197654" x2="-26844.2" y2="500986" gradientUnits="userSpaceOnUse"><stop stop-color="#437FEC"/><stop offset=".54" stop-color="#48B2ED"/><stop offset="1" stop-color="#4CD9ED"/></linearGradient><linearGradient id="b" x1="102691" y1="-460985" x2="105102" y2="-455512" gradientUnits="userSpaceOnUse"><stop stop-color="#5FEFC0"/><stop offset=".13" stop-color="#5CECC6"/><stop offset="1" stop-color="#4CD9ED"/></linearGradient><linearGradient id="c" x1="-115345" y1="68198.2" x2="-146841" y2="85457" gradientUnits="userSpaceOnUse"><stop stop-color="#4CD9ED"/><stop offset=".18" stop-color="#4BD3ED"/><stop offset=".42" stop-color="#4AC3ED"/><stop offset=".68" stop-color="#47A9EC"/><stop offset=".97" stop-color="#4384EC"/><stop offset="1" stop-color="#437FEC"/></linearGradient></defs></svg>