<svg width="58" height="72" viewBox="0 0 58 72" fill="none" xmlns="http://www.w3.org/2000/svg"><path d="M58 27.868v43.41H38.314V8.384h8.488L58 27.869z" fill="#00CC76"/><path d="M38.315 8.386v62.891H18.63V59.843L31.197 8.385h7.118z" fill="#B0EB95"/><path d="M40.241 18.163v43.511h-20.12V0h7.405L40.24 18.163z" fill="#FD5"/><path d="M20.12 0v61.674H0V18.201L11.863 0h8.257z" fill="#FFF68E"/><path d="M26.819 21.931v4.193H20.12v-9.265h2.422v5.072h4.277zm2.096 16.434c0 3.621-2.816 6.597-6.373 6.855v5.093H20.12v-9.265h1.919a2.687 2.687 0 0 0 2.683-2.683 2.686 2.686 0 0 0-2.683-2.683H20.12v-4.193h1.919a6.884 6.884 0 0 1 6.876 6.876z" fill="#00CC76"/><path d="M16.967 28.807a2.685 2.685 0 0 0 2.682 2.682h.471v4.193h-.47a6.883 6.883 0 0 1-6.876-6.875c0-3.347 2.404-6.14 5.575-6.752V16.86h1.771v9.265h-.47a2.686 2.686 0 0 0-2.683 2.683zm-3.69 12.242h6.843v9.264h-1.77v-5.072h-5.073V41.05z" fill="#B0EB95"/><path d="M20.12 8.386h2.242v4.192H20.12V8.386z" fill="#FF9F22"/><path d="M18.169 8.386h1.951v4.192h-1.951V8.386z" fill="#FFDA44"/></svg>