<svg width="41" height="41" viewBox="0 0 41 41" fill="none" xmlns="http://www.w3.org/2000/svg"><path d="M40.943 20.471c0 11.307-9.165 20.472-20.471 20.472C9.165 40.943 0 31.778 0 20.472 0 9.164 9.165 0 20.472 0c11.306 0 20.471 9.165 20.471 20.471z" fill="#2A90DE"/><path d="M33.174 4.424c0 .055.005.11.005.164-.002 15.446-11.23 28.6-26.484 31.026 8.335 7.639 21.285 7.076 28.924-1.258 7.64-8.335 7.077-21.285-1.258-28.925a20.232 20.232 0 0 0-1.187-1.007z" fill="#2683C9"/><path d="M17.648 26.825c0-1.95-2.213-3.53-4.942-3.53-2.73 0-4.941 1.58-4.941 3.53 0 1.949 2.212 3.53 4.941 3.53 2.73 0 4.942-1.581 4.942-3.53z" fill="#2379BA"/><path d="M27.077 23.318a11.903 11.903 0 0 1-6.565-2.022 13.273 13.273 0 0 0-7.387-2.236h-.13c-2.628-.003-5.2.775-7.386 2.236a11.916 11.916 0 0 1-5.418 1.937c.064.468.138.934.232 1.391a13.35 13.35 0 0 0 5.97-2.153 11.861 11.861 0 0 1 6.602-2h.13a11.9 11.9 0 0 1 6.636 2.022 13.27 13.27 0 0 0 7.307 2.237l13.17.066h.245c.1-.468.184-.942.252-1.422l-13.658-.056zm-7.35 7.861a11.863 11.863 0 0 1-6.603 2h-.13a11.861 11.861 0 0 1-6.602-2 13.326 13.326 0 0 0-4.1-1.825l-.09.353c.226.447.465.886.722 1.312.948.33 1.848.779 2.683 1.336a13.267 13.267 0 0 0 7.387 2.235h.13c2.642 0 5.225-.786 7.418-2.26a11.87 11.87 0 0 1 6.527-1.998l11.331.018c.254-.459.488-.93.706-1.412l-12.04-.02a13.308 13.308 0 0 0-7.34 2.26zM10.1 38.12h20.743a20.447 20.447 0 0 0 2.092-1.412H8.009c.668.512 1.366.984 2.091 1.411zm13.008-22.262a39.588 39.588 0 0 0 15.945.348l1.378-.254h.006a22.776 22.776 0 0 0-.353-1.367l-1.28.233a38.168 38.168 0 0 1-15.38-.335 39.589 39.589 0 0 0-15.821-.37l-6.957 1.24c-.127.49-.229.989-.319 1.491l7.52-1.34a38.214 38.214 0 0 1 15.261.354zM8.076 6.907c.437.073.872.155 1.308.246a33.2 33.2 0 0 0 6.852.719 33.204 33.204 0 0 0 6.852-.719 31.736 31.736 0 0 1 12.095-.198l.764.124a20.508 20.508 0 0 0-1.629-1.683 33.066 33.066 0 0 0-11.521.376 31.664 31.664 0 0 1-13.122 0 40.03 40.03 0 0 0-1.366-.258 13.655 13.655 0 0 0-1.632-.168c-.492.45-.962.922-1.408 1.418a13.02 13.02 0 0 1 2.807.143z" fill="#2A669E"/><path d="M17.648 26.825c0-1.95-2.213-3.53-4.942-3.53-2.73 0-4.941 1.58-4.941 3.53 0 1.949 2.212 3.53 4.941 3.53 2.73 0 4.942-1.581 4.942-3.53z" fill="#2379BA"/><path d="M27.077 23.318a11.903 11.903 0 0 1-6.565-2.022 13.273 13.273 0 0 0-7.387-2.236h-.13c-2.628-.003-5.2.775-7.386 2.236a11.916 11.916 0 0 1-5.418 1.937c.064.468.138.934.232 1.391a13.35 13.35 0 0 0 5.97-2.153 11.861 11.861 0 0 1 6.602-2h.13a11.9 11.9 0 0 1 6.636 2.022 13.27 13.27 0 0 0 7.307 2.237l13.17.066h.245c.1-.468.184-.942.252-1.422l-13.658-.056zm-7.35 7.861a11.863 11.863 0 0 1-6.603 2h-.13a11.861 11.861 0 0 1-6.602-2 13.326 13.326 0 0 0-4.1-1.825l-.09.353c.226.447.465.886.722 1.312.948.33 1.848.779 2.683 1.336a13.267 13.267 0 0 0 7.387 2.235h.13c2.642 0 5.225-.786 7.418-2.26a11.87 11.87 0 0 1 6.527-1.998l11.331.018c.254-.459.488-.93.706-1.412l-12.04-.02a13.308 13.308 0 0 0-7.34 2.26zM10.1 38.12h20.743a20.447 20.447 0 0 0 2.092-1.412H8.009c.668.512 1.366.984 2.091 1.411zm13.008-22.262a39.588 39.588 0 0 0 15.945.348l1.378-.254h.006a22.776 22.776 0 0 0-.353-1.367l-1.28.233a38.168 38.168 0 0 1-15.38-.335 39.589 39.589 0 0 0-15.821-.37l-6.957 1.24c-.127.49-.229.989-.319 1.491l7.52-1.34a38.214 38.214 0 0 1 15.261.354zM8.076 6.907c.437.073.872.155 1.308.246a33.2 33.2 0 0 0 6.852.719 33.204 33.204 0 0 0 6.852-.719 31.736 31.736 0 0 1 12.095-.198l.764.124a20.508 20.508 0 0 0-1.629-1.683 33.066 33.066 0 0 0-11.521.376 31.664 31.664 0 0 1-13.122 0 40.03 40.03 0 0 0-1.366-.258 13.655 13.655 0 0 0-1.632-.168c-.492.45-.962.922-1.408 1.418a13.02 13.02 0 0 1 2.807.143z" fill="#2A669E"/></svg>