<svg width="90" height="90" viewBox="0 0 90 90" fill="none" xmlns="http://www.w3.org/2000/svg"><path d="M72.54 43.047l2.734 5.539 6.113.888-4.424 4.312 1.045 6.088L72.54 57l-5.468 2.874 1.045-6.088-4.423-4.312 6.112-.888 2.734-5.54zM16.994 29.838l2.733 5.538 6.113.889-4.423 4.312 1.044 6.088-5.467-2.874-5.468 2.874 1.044-6.088-4.423-4.312 6.112-.889 2.735-5.538z" fill="#FFE07D"/><path d="M38.74 6.754c-6.411 0-5.495-6.182-5.495-6.182h5.495l.283 2.986-.283 3.196zm12.622 0c6.41 0 5.495-6.182 5.495-6.182h-5.495l-.284 2.986.284 3.196zM45.05 23.36c-.729 0-1.319-.59-1.319-1.32v-6.116a1.318 1.318 0 1 1 2.637 0v6.117c0 .728-.59 1.318-1.319 1.318z" fill="#FFD064"/><path d="M38.728.572v9.03a6.322 6.322 0 0 0 12.643 0V.572H38.728zm-.143 27.858a6.388 6.388 0 0 1 12.776 0H38.585z" fill="#FFE07D"/><path d="M54.464 27.11H35.536a1.318 1.318 0 1 0 0 2.638h18.928a1.318 1.318 0 1 0 0-2.637z" fill="#FFD064"/><path d="M58.32 88.11H31.498V38.426a2.07 2.07 0 0 1 2.07-2.072H56.25a2.07 2.07 0 0 1 2.07 2.072v49.682z" fill="#C3DDFF"/><path d="M56.251 36.355H49.22a2.07 2.07 0 0 1 2.07 2.072v49.682h7.03V38.427a2.07 2.07 0 0 0-2.069-2.072z" fill="#A4CCFF"/><path d="M85.327 88.11H58.503V69.515a2.07 2.07 0 0 1 2.07-2.07h22.684a2.07 2.07 0 0 1 2.07 2.07V88.11z" fill="#B3E59F"/><path d="M83.257 67.445h-7.031a2.07 2.07 0 0 1 2.07 2.071V88.11h7.031V69.516a2.07 2.07 0 0 0-2.07-2.07z" fill="#95D6A4"/><path d="M31.497 88.11H4.673V55.741a2.07 2.07 0 0 1 2.07-2.07h22.684a2.07 2.07 0 0 1 2.07 2.07V88.11z" fill="#FF8086"/><path d="M29.427 53.672h-7.031a2.07 2.07 0 0 1 2.07 2.07V88.11h7.031V55.742a2.07 2.07 0 0 0-2.07-2.07z" fill="#E5646E"/><path d="M88.682 86.79H1.318a1.318 1.318 0 1 0 0 2.637h87.364a1.318 1.318 0 1 0 0-2.636z" fill="#FFE07D"/></svg>