<svg width="90" height="90" viewBox="0 0 90 90" fill="none" xmlns="http://www.w3.org/2000/svg"><g clip-path="url(#a)"><path d="M71.367 0h5.274v21.27h-5.274V0zm7.897 34.19h-10.52L63.47 87.1h21.068l-5.273-52.91z" fill="#DFE7F4"/><path d="M80.39 37.09H67.618c-.362-.53-4.228-3.424-4.228-9.229 0-5.823 3.868-8.7 4.228-9.228H80.39c.362.53 4.228 3.424 4.228 9.228 0 5.824-3.868 8.701-4.228 9.229z" fill="#F0F7FF"/><path d="M15.996 31.816h5.274v7.91h-5.274v-7.91zm10.547 15.997h15.82V74.18h-15.82V47.812z" fill="#BED8FB"/><path d="M5.273 37.09h26.543v50.273H5.273V37.09z" fill="#F0F7FF"/><path d="M15.996 47.813h5.274v5.273h-5.274v-5.273zm0 10.547h5.274v5.273h-5.274v-5.274z" fill="#BED8FB"/><path d="M18.633 76.816h47.46" stroke="#000" stroke-width="30" stroke-miterlimit="10"/><path d="M42.363 63.522c-18.971 0-25.84 12.87-26.367 13.294l5.274 2.637h42.2l5.26-2.637c-6.727-9.372-16.749-13.294-26.367-13.294z" fill="#A3CAF7"/><path d="M68.73 76.816c-6.727-9.372-16.749-13.294-26.367-13.294v15.931H63.47l5.26-2.637z" fill="#80ABE1"/><path d="M42.363 76.816H15.996v10.547h52.735V76.816H42.363z" fill="#BED8FB"/><path d="M42.363 76.816h26.368v10.547H42.363V76.816z" fill="#A3CAF7"/><path d="M42.363 84.727H0V90h90v-5.273H42.363z" fill="#DFE7F4"/><path d="M42.363 84.727H90V90H42.363v-5.273z" fill="#C7CFE1"/></g><defs><clipPath id="a"><path fill="#fff" d="M0 0h90v90H0z"/></clipPath></defs></svg>