<svg width="90" height="90" viewBox="0 0 90 90" fill="none" xmlns="http://www.w3.org/2000/svg"><path d="M38.271 27.614c7.626 0 13.807-6.182 13.807-13.807S45.897 0 38.271 0c-7.625 0-13.807 6.182-13.807 13.807s6.182 13.807 13.807 13.807z" fill="#BED8FB"/><path d="M71.847 31.832a5.61 5.61 0 0 0-5.61 5.61v-4.524a5.61 5.61 0 1 0-11.218 0v-2.265a5.61 5.61 0 0 0-11.22 0V11.707a5.61 5.61 0 1 0-11.218 0v40.189c0 .74-.91 1.096-1.411.55l-8.98-9.766a5.367 5.367 0 0 0-7.792-.163c-2.125 2.126-2.476 5.895-.78 8.377l14.348 20.978a16.75 16.75 0 0 0 10.236 6.905c.338 0 .612.274.612.612v9.465c0 .633.513 1.146 1.145 1.146h32.76c.633 0 1.146-.513 1.146-1.146v-8.286c0-.622.116-1.237.343-1.815l.434-1.108A40.737 40.737 0 0 0 77.45 63.33l.007-5.808V37.44a5.609 5.609 0 0 0-5.61-5.61z" fill="#FFEFE7"/><path d="M71.847 31.832a5.61 5.61 0 0 0-5.61 5.61v-4.524a5.61 5.61 0 1 0-11.218 0v-2.265a5.61 5.61 0 0 0-11.22 0V11.707a5.61 5.61 0 1 0-11.218 0v40.189c0 .74-.91 1.096-1.411.55l-8.98-9.766a5.367 5.367 0 0 0-7.792-.163c-2.125 2.126-2.476 5.895-.78 8.377l14.348 20.978a16.75 16.75 0 0 0 10.236 6.905c.338 0 .612.274.612.612v9.465c0 .633.513 1.146 1.145 1.146h32.76c.633 0 1.146-.513 1.146-1.146v-8.286c0-.622.116-1.237.343-1.815l.434-1.108A40.737 40.737 0 0 0 77.45 63.33l.007-5.808V37.44a5.609 5.609 0 0 0-5.61-5.61z" fill="#FFEFE7"/><path d="M32.581 51.846a4.027 4.027 0 0 0 4.027-4.026V11.44c0-1.689.627-3.215 1.643-4.322a5.747 5.747 0 0 1 1.063-.908 5.6 5.6 0 0 0-5.09 1.53 5.59 5.59 0 0 0-1.643 3.967v40.14zM70.705 37.92a5.614 5.614 0 0 1 3.923-5.351 5.609 5.609 0 0 0-8.39 4.87v3.238c0 .123.1.222.222.222h1.266a2.979 2.979 0 0 0 2.979-2.979zm-7.974-10.203a5.551 5.551 0 0 0-2.008-.407 5.599 5.599 0 0 0-5.704 5.725v8.66a4.22 4.22 0 0 0 4.22-4.22v-4.557a5.608 5.608 0 0 1 3.492-5.201zm-11.396-2.334a5.581 5.581 0 0 0-2.024-.34c-3.08.054-5.51 2.57-5.51 5.731v10.63a3.86 3.86 0 0 0 3.859-3.86v-6.892a5.609 5.609 0 0 1 3.675-5.27z" fill="#FFE0D1"/><path d="M18.366 24.375c-.51 0-.999-.288-1.232-.779a23.182 23.182 0 0 1-2.254-10.028c0-3.508.758-6.882 2.254-10.03a1.363 1.363 0 1 1 2.462 1.17 20.475 20.475 0 0 0-1.99 8.86c0 3.099.67 6.08 1.99 8.859a1.363 1.363 0 0 1-1.23 1.948zm39.81 0a1.363 1.363 0 0 1-1.23-1.948 20.481 20.481 0 0 0 1.991-8.86c0-3.099-.67-6.08-1.99-8.858a1.363 1.363 0 1 1 2.461-1.17 23.183 23.183 0 0 1 2.255 10.029c0 3.507-.759 6.88-2.255 10.029-.233.49-.722.777-1.232.777z" fill="#BED8FB"/><path d="M42.469 78.654a4.557 4.557 0 0 0-2.537-4.089c-2.688-1.324-6.756-3.595-8.311-5.868L16.948 47.244a5.909 5.909 0 0 1-1.034-3.34c0-.859.186-1.901.55-2.686-.75.26-1.459.693-2.065 1.3-2.126 2.125-2.477 5.894-.78 8.376l14.348 20.978a16.75 16.75 0 0 0 10.235 6.905c.338 0 .612.274.612.612v9.465c0 .633.513 1.146 1.146 1.146h2.509V78.654z" fill="#FFE0D1"/></svg>