<svg width="90" height="90" viewBox="0 0 90 90" fill="none" xmlns="http://www.w3.org/2000/svg"><g clip-path="url(#a)"><path d="M90 55.94V10.216a5.444 5.444 0 0 0-5.444-5.444H5.444A5.444 5.444 0 0 0 0 10.216V55.94l45 1.633 45-1.633z" fill="#BED8FB"/><path d="M0 55.94v3.266l45 1.633 45-1.633V55.94H0z" fill="#A3CAF7"/><path d="M78.032 13.318H11.968a2.722 2.722 0 0 0-2.722 2.722v8.058L45 25.68l35.754-1.582V16.04a2.722 2.722 0 0 0-2.722-2.722z" fill="#434D59"/><path d="M80.754 55.94L45 57.522 9.246 55.94V24.098h71.508V55.94z" fill="#ECEAEC"/><path d="M9.246 59.206L45 60.788l35.755-1.582V55.94H9.246v3.266z" fill="#DAD8DB"/><path d="M71.413 42.469v-10.49a.907.907 0 0 0-.907-.907H19.491a.907.907 0 0 0-.908.908v10.489L45 44.051l26.413-1.582z" fill="#DF667C"/><path d="M19.492 45.735h51.013a.907.907 0 0 0 .908-.907V42.47H18.585v2.36c0 .5.406.906.907.906z" fill="#DC4857"/><path d="M41.742 55.94l-11.579 1.582-11.579-1.582v-3.254c0-.5.407-.907.908-.907h21.343c.5 0 .907.406.907.907v3.254zm29.673 0l-11.578 1.582-11.58-1.582v-3.254c0-.5.407-.907.908-.907h21.343c.501 0 .907.406.907.907v3.254z" fill="#EDC963"/><path d="M18.584 59.206l11.58 1.582 11.578-1.582V55.94H18.585v3.266zm29.674 0l11.579 1.582 11.578-1.582V55.94H48.258v3.266z" fill="#E7B93E"/><path d="M15.74 16.459c-1.154 0-2.094.94-2.094 2.094 0 1.155.94 2.094 2.095 2.094 1.154 0 2.094-.94 2.094-2.094 0-1.155-.94-2.094-2.094-2.094z" fill="#DF667C"/><path d="M22.462 16.459c-1.155 0-2.094.94-2.094 2.094 0 1.155.94 2.094 2.094 2.094 1.155 0 2.095-.94 2.095-2.094 0-1.155-.94-2.094-2.095-2.094z" fill="#EDC963"/><path d="M29.183 16.459c-1.154 0-2.094.94-2.094 2.094 0 1.155.94 2.094 2.094 2.094 1.155 0 2.095-.94 2.095-2.094 0-1.155-.94-2.094-2.095-2.094z" fill="#B3E59F"/><path d="M36.49 73.951l-1.301 9.916H54.81l-1.3-9.916L45 72.318l-8.51 1.633z" fill="#DAD8DB"/><path d="M53.51 73.951l-.427-3.266L45 69.052l-8.083 1.633-.428 3.266h17.022z" fill="#C8C5C9"/><path d="M5.444 69.052h79.113C90 69.052 90 64.982 90 61.975v-2.769H0v2.77c0 3.006.39 7.076 5.444 7.076z" fill="#ECEAEC"/><path d="M60.84 85.228H29.16a1.36 1.36 0 0 1 0-2.722h31.68a1.36 1.36 0 0 1 0 2.722z" fill="#C8C5C9"/><path d="M84.556 67.419H5.444A5.444 5.444 0 0 1 0 61.975v3.267a5.444 5.444 0 0 0 5.444 5.443h79.113A5.444 5.444 0 0 0 90 65.241v-3.266a5.444 5.444 0 0 1-5.444 5.444z" fill="#DAD8DB"/></g><defs><clipPath id="a"><path fill="#fff" d="M0 0h90v90H0z"/></clipPath></defs></svg>