<svg width="50" height="50" viewBox="0 0 50 50" fill="none" xmlns="http://www.w3.org/2000/svg"><mask id="a" maskUnits="userSpaceOnUse" x="0" y="0" width="50" height="50"><path d="M50 14.101V6.628a3.609 3.609 0 0 0-3.609-3.608H3.61A3.609 3.609 0 0 0 0 6.628v7.473h50zM19.38 7.167a1.567 1.567 0 1 1-.001 3.134 1.567 1.567 0 0 1 0-3.134zm-6.66 0a1.567 1.567 0 1 1 0 3.134 1.567 1.567 0 0 1 0-3.134zm-6.372 0a1.567 1.567 0 1 1 0 3.134 1.567 1.567 0 0 1 0-3.134zm16.654 17.811v3.17l2.664-1.652-2.664-1.518z" fill="#000"/><path d="M0 17.214v26.158a3.609 3.609 0 0 0 3.609 3.608H46.39A3.609 3.609 0 0 0 50 43.372V17.214H0zM19.889 22.3a1.557 1.557 0 0 1 2.327-1.352l7.265 4.138a1.557 1.557 0 0 1 .05 2.675l-7.265 4.507a1.556 1.556 0 0 1-2.377-1.323V22.3zm23.473 16.92H41.25v1.05a1.557 1.557 0 1 1-3.113 0v-1.05h-31.5a1.557 1.557 0 1 1 0-3.113h31.5v-1.049a1.556 1.556 0 1 1 3.113 0v1.05h2.112a1.556 1.556 0 1 1 0 3.112z" fill="#000"/></mask><g mask="url(#a)"><path fill="url(#b)" d="M-5-8h68v65H-5z"/></g><defs><linearGradient id="b" x1="29" y1="-8" x2="29" y2="57" gradientUnits="userSpaceOnUse"><stop stop-color="#5458FF"/><stop offset="1" stop-color="#02BDFF"/></linearGradient></defs></svg>