<svg width="51" height="47" viewBox="0 0 51 47" fill="none" xmlns="http://www.w3.org/2000/svg"><path d="M18 20.563H9v5.875h9v-5.875zM49.5 0h-48C.67 0 0 .657 0 1.469V11.75h51V1.469C51 .657 50.33 0 49.5 0zm-42 7.344c-.828 0-1.5-.658-1.5-1.469s.672-1.469 1.5-1.469S9 5.064 9 5.875s-.672 1.469-1.5 1.469zm6 0c-.828 0-1.5-.658-1.5-1.469s.672-1.469 1.5-1.469 1.5.658 1.5 1.469-.672 1.469-1.5 1.469zm6 0c-.828 0-1.5-.658-1.5-1.469s.672-1.469 1.5-1.469 1.5.658 1.5 1.469-.672 1.469-1.5 1.469zm24 0h-15c-.83 0-1.5-.657-1.5-1.469s.67-1.469 1.5-1.469h15c.829 0 1.5.657 1.5 1.469s-.67 1.469-1.5 1.469zM42 35.25H9v2.938h33V35.25zM0 45.531C0 46.343.67 47 1.5 47h48c.83 0 1.5-.657 1.5-1.469V14.688H0V45.53zm25.5-24.968h18c.829 0 1.5.657 1.5 1.468 0 .812-.67 1.469-1.5 1.469h-18c-.83 0-1.5-.657-1.5-1.469 0-.811.67-1.468 1.5-1.468zm0 5.875h18c.829 0 1.5.657 1.5 1.468 0 .812-.671 1.469-1.5 1.469h-18c-.83 0-1.5-.657-1.5-1.469 0-.811.67-1.468 1.5-1.468zM6 19.093c0-.812.67-1.469 1.5-1.469h12c.829 0 1.5.657 1.5 1.469v8.812c0 .812-.671 1.469-1.5 1.469h-12c-.83 0-1.5-.657-1.5-1.469v-8.812zM6 33.78c0-.812.67-1.468 1.5-1.468h36c.829 0 1.5.656 1.5 1.468v5.875c0 .812-.671 1.469-1.5 1.469h-36c-.829 0-1.5-.657-1.5-1.469V33.78z" fill="url(#a)"/><defs><linearGradient id="a" x1="25.5" y1="47" x2="25.5" gradientUnits="userSpaceOnUse"><stop stop-color="#FFDE00"/><stop offset="1" stop-color="#FD5900"/></linearGradient></defs></svg>