<svg width="58" height="51" viewBox="0 0 58 51" fill="none" xmlns="http://www.w3.org/2000/svg"><path d="M56.294 43.79h-22.49a5.054 5.054 0 0 0-3.098-3.026v-4.122c8.082-2.565 13.647-9.856 13.647-18.262V8.79c0-.631-.367-1.207-.943-1.49L29.763.633a1.744 1.744 0 0 0-1.526 0L14.59 7.3a1.665 1.665 0 0 0-.943 1.49v9.59c0 8.406 5.565 15.698 13.647 18.262v4.122a5.054 5.054 0 0 0-3.098 3.026H1.706C.763 43.79 0 44.536 0 45.457s.763 1.667 1.706 1.667h22.49A5.102 5.102 0 0 0 29 50.457a5.102 5.102 0 0 0 4.803-3.333h22.491c.943 0 1.706-.746 1.706-1.667s-.763-1.667-1.706-1.667zM28.337 29.985c-4.778-1.973-7.866-6.528-7.866-11.605v-5.47c0-.632.366-1.208.943-1.491l6.823-3.333a1.744 1.744 0 0 1 1.526 0l6.824 3.333c.576.283.943.86.943 1.49v5.471c0 5.077-3.089 9.632-7.867 11.605-.42.176-.906.176-1.326 0zm5.78-16.045L29 11.44l-5.118 2.5v4.44c0 3.493 1.986 6.65 5.118 8.231 3.132-1.58 5.118-4.738 5.118-8.23v-4.44z" fill="url(#a)"/><defs><linearGradient id="a" x1="29" y1="50.457" x2="29" y2=".457" gradientUnits="userSpaceOnUse"><stop stop-color="#6FE9A7"/><stop offset="1" stop-color="#04B69C"/></linearGradient></defs></svg>