<svg width="65" height="65" viewBox="0 0 65 65" fill="none" xmlns="http://www.w3.org/2000/svg"><g clip-path="url(#a)" fill="#082854"><path d="M61.054 28.287h-1.505a.658.658 0 0 1-.585-.371c-1.241-2.458-2.997-4.672-5.227-6.592a7.572 7.572 0 0 0 .71-6.377l-1.459-4.332a.955.955 0 0 0-1.21-.6l-4.333 1.46a7.596 7.596 0 0 0-4.579 4.257 30.102 30.102 0 0 0-2.083-.463v-2.666a.955.955 0 1 0-1.91 0V22.8H28.025V5.59l1.323 1.268c.51.49 1.311.49 1.823 0l2.278-2.183 2.278 2.183c.51.49 1.311.49 1.822 0l1.324-1.268v3.194a.955.955 0 1 0 1.91 0V4.201a1.316 1.316 0 0 0-2.229-.95l-1.916 1.835-2.279-2.183a1.315 1.315 0 0 0-1.822 0l-2.278 2.183-1.915-1.835a1.316 1.316 0 0 0-2.229.95V16.1c-10.081 3.117-16.81 11.135-16.81 20.123 0 1.496.187 2.975.55 4.42a5.753 5.753 0 0 1-1.097 1.084 4.378 4.378 0 0 1-3.268.844 4.38 4.38 0 0 1-2.907-1.714 3.34 3.34 0 0 1 .658-4.672 2.477 2.477 0 0 1 3.47.489 1.793 1.793 0 0 1-.353 2.509 1.244 1.244 0 0 1-1.74-.245.955.955 0 1 0-1.525 1.149 3.157 3.157 0 0 0 4.414.622 3.706 3.706 0 0 0 .73-5.184 4.386 4.386 0 0 0-6.145-.866 5.244 5.244 0 0 0-1.035 7.347 6.317 6.317 0 0 0 8.85 1.247c.214-.161.417-.333.611-.514a19.97 19.97 0 0 0 2.864 5.067.956.956 0 0 0 1.512-1.167c-2.406-3.117-3.679-6.719-3.679-10.416 0-7.974 5.94-15.132 14.9-18.117V22.8h-.753a.955.955 0 1 0 0 1.91h16.174a.955.955 0 1 0 0-1.91h-.753v-5.585c.819.163 1.63.36 2.42.591a.957.957 0 0 0 1.188-.659 5.692 5.692 0 0 1 3.664-3.863l3.428-1.155 1.155 3.428a5.675 5.675 0 0 1-.934 5.35.955.955 0 0 0 .153 1.338c2.343 1.875 4.16 4.072 5.401 6.531a2.558 2.558 0 0 0 2.29 1.42h1.506a2.04 2.04 0 0 1 2.036 2.037v7.978a2.039 2.039 0 0 1-2.036 2.037h-1.505c-.97 0-1.849.544-2.29 1.42-1.885 3.734-5.236 6.977-9.437 9.133a.955.955 0 0 0-.503 1.02l.767 4.218a2.118 2.118 0 0 1-1.398 2.394 2.118 2.118 0 0 1-2.579-1.017l-1.987-3.76a.956.956 0 0 0-1.04-.49 29.048 29.048 0 0 1-5.946.614c-3.166 0-6.243-.5-9.148-1.484a.955.955 0 0 0-1.15.458l-2.465 4.661a2.118 2.118 0 0 1-2.579 1.018 2.118 2.118 0 0 1-1.398-2.394l1.15-6.318a.955.955 0 0 0-.374-.94 22.625 22.625 0 0 1-1.797-1.467.955.955 0 0 0-1.282 1.416c.469.425.961.837 1.469 1.229l-1.045 5.737a4.018 4.018 0 0 0 2.653 4.542 4.017 4.017 0 0 0 4.892-1.93l2.089-3.952a30.429 30.429 0 0 0 8.985 1.334c1.892 0 3.782-.173 5.63-.514l1.655 3.132a4.019 4.019 0 0 0 4.892 1.93 4.018 4.018 0 0 0 2.653-4.542l-.643-3.53c4.317-2.356 7.642-5.677 9.64-9.638a.658.658 0 0 1 .586-.37h1.505A3.95 3.95 0 0 0 65 40.21v-7.978a3.95 3.95 0 0 0-3.946-3.946z"/><path d="M48.433 33.4a.955.955 0 0 0 .956-.954v-2.01a.955.955 0 1 0-1.91 0v2.01c0 .527.427.955.954.955zM30.969 9.964h-.902a.955.955 0 1 0 0 1.91h.902a.955.955 0 1 0 0-1.91zm5.862 0h-3.449a.955.955 0 1 0 0 1.91h3.449a.955.955 0 1 0 0-1.91zm-5.862 3.746h-.902a.955.955 0 1 0 0 1.911h.902a.955.955 0 1 0 0-1.91zm5.862 0h-3.449a.955.955 0 1 0 0 1.911h3.449a.955.955 0 1 0 0-1.91zm-5.862 3.747h-.902a.955.955 0 1 0 0 1.91h.902a.955.955 0 1 0 0-1.91zm5.862 0h-3.449a.955.955 0 1 0 0 1.91h3.449a.955.955 0 1 0 0-1.91z"/></g><defs><clipPath id="a"><path fill="#fff" d="M0 0h65v65H0z"/></clipPath></defs></svg>