<svg width="65" height="65" viewBox="0 0 65 65" fill="none" xmlns="http://www.w3.org/2000/svg"><path d="M58.728 13.369a.952.952 0 0 0 .952-.953V7.385C59.68 3.313 56.367 0 52.295 0h-39.59C8.633 0 5.32 3.313 5.32 7.385v3.522a.952.952 0 1 0 1.904 0V7.385a5.487 5.487 0 0 1 5.481-5.48 5.487 5.487 0 0 1 5.48 5.48v12.61H7.225v-5.28a.952.952 0 1 0-1.905 0v5.28c0 1.05.854 1.903 1.904 1.903h10.961v40.853c0 .659.403 1.224 1.026 1.438.622.216 1.288.02 1.695-.5l3.181-4.057 3.752 4.785c.29.37.727.583 1.198.583.47 0 .907-.213 1.198-.583l3.75-4.785 3.752 4.785c.29.37.727.583 1.198.583.47 0 .907-.213 1.198-.583l3.75-4.785 3.751 4.785c.29.37.727.583 1.198.583s.908-.213 1.198-.583l3.75-4.785 3.18 4.057a1.503 1.503 0 0 0 1.695.5 1.504 1.504 0 0 0 1.025-1.439V16.224a.952.952 0 1 0-1.904 0v45.42l-2.798-3.57a1.513 1.513 0 0 0-1.198-.583c-.47 0-.907.212-1.198.583l-3.75 4.784-3.75-4.784a1.513 1.513 0 0 0-1.198-.583 1.51 1.51 0 0 0-1.198.583l-3.751 4.785-3.751-4.785a1.513 1.513 0 0 0-1.198-.583 1.51 1.51 0 0 0-1.198.583l-3.751 4.785-3.752-4.785a1.514 1.514 0 0 0-1.198-.583c-.47 0-.907.212-1.198.583l-2.799 3.57V7.385a7.367 7.367 0 0 0-2.441-5.48h34.646a5.487 5.487 0 0 1 5.48 5.48v5.031c0 .526.427.953.953.953z" fill="#082854"/><path d="M25.737 17.773h3.744a.952.952 0 1 0 0-1.904h-3.744a.952.952 0 1 0 0 1.904zm26.392-1.903H34.66a.952.952 0 1 0 0 1.903h17.468a.952.952 0 1 0 0-1.904zm-26.392 6.838h3.744a.952.952 0 1 0 0-1.904h-3.744a.952.952 0 1 0 0 1.904zm26.392-1.904H34.66a.952.952 0 1 0 0 1.904h17.468a.952.952 0 1 0 0-1.904zm-26.392 6.839h3.744a.952.952 0 1 0 0-1.905h-3.744a.952.952 0 1 0 0 1.905zm26.392-1.905H34.66a.952.952 0 1 0 0 1.905h17.468a.952.952 0 1 0 0-1.905zm0 6.744h-8.853a.952.952 0 1 0 0 1.904h8.853a.952.952 0 1 0 0-1.904zM29.127 47.883a.952.952 0 0 0 .952-.952v-.377c1.235-.381 2.024-1.466 2.204-2.537.243-1.444-.54-2.749-1.948-3.247l-.43-.15c-.626-.214-1.272-.437-1.466-.662-.183-.213-.25-.569-.164-.865a.64.64 0 0 1 .457-.466c1.078-.325 1.937-.09 1.97-.08a.952.952 0 0 0 .562-1.82 4.679 4.679 0 0 0-1.185-.175v-.053a.952.952 0 1 0-1.904 0v.307a2.546 2.546 0 0 0-1.728 1.754c-.27.923-.059 1.935.55 2.641.53.615 1.344.896 2.288 1.22l.415.145c.736.26.758.823.705 1.136-.088.522-.527 1.087-1.285 1.092-.796.004-1.018-.03-1.617-.422a.952.952 0 1 0-1.042 1.593c.651.426 1.14.613 1.714.688v.278c0 .526.426.952.952.952z" fill="#082854"/></svg>