<svg width="65" height="65" viewBox="0 0 65 65" fill="none" xmlns="http://www.w3.org/2000/svg"><g clip-path="url(#a)" fill="#082854"><path d="M25.372 12.822a28.01 28.01 0 0 1-.586-.212V9.02c.72.033 1.196.217 1.218.226a.952.952 0 0 0 .743-1.753c-.048-.021-.816-.341-1.96-.38v-.476a.952.952 0 1 0-1.905 0v.688c-.08.02-.16.043-.24.067-1.185.357-2.07 1.37-2.31 2.643-.22 1.166.157 2.293.984 2.942.404.317.899.607 1.566.91v4.433c-.51-.06-.878-.217-1.466-.6a.952.952 0 1 0-1.042 1.593c.98.64 1.666.856 2.508.92v.698a.952.952 0 1 0 1.904 0v-.786c1.698-.407 2.787-1.846 3.025-3.265.308-1.832-.65-3.425-2.44-4.057zM22.49 11.48c-.261-.205-.375-.633-.288-1.091.068-.363.281-.79.679-1.034v2.39a3.894 3.894 0 0 1-.391-.265zm3.442 5.086a2.174 2.174 0 0 1-1.147 1.568v-3.496c1.282.481 1.203 1.594 1.147 1.928zM38.54 53.304a.952.952 0 0 0-1.043 1.594c1.028.672 1.743.892 2.632.956v.764a.952.952 0 1 0 1.904 0v-.85c1.77-.41 2.905-1.904 3.153-3.378.318-1.89-.67-3.532-2.516-4.184-.21-.074-.423-.152-.637-.232v-3.812c.783.03 1.301.232 1.325.241a.952.952 0 0 0 .743-1.753c-.05-.022-.86-.36-2.068-.394v-.535a.952.952 0 1 0-1.904 0v.749a6.919 6.919 0 0 0-.278.077c-1.221.367-2.134 1.411-2.38 2.723-.227 1.2.16 2.36 1.01 3.027.424.332.944.636 1.648.954v4.692c-.561-.06-.953-.222-1.59-.639zm1.116-6.505c-.284-.223-.407-.684-.315-1.176.077-.406.323-.884.787-1.138v2.63a4.31 4.31 0 0 1-.472-.316zm2.38 3.202c1.42.502 1.332 1.714 1.272 2.073-.11.659-.544 1.354-1.275 1.691V50h.002zm-17.615.39h-3.2V39.134h1.953a.952.952 0 0 0 .66-1.64l-5.543-5.32a.952.952 0 0 0-1.32 0l-5.542 5.32a.952.952 0 0 0 .66 1.64h1.952V53.98c0 1.98 1.61 3.59 3.59 3.59h6.79c.94 0 1.705-.765 1.705-1.706v-3.77c0-.94-.765-1.704-1.705-1.704zm-.2 5.275h-6.59c-.93 0-1.685-.756-1.685-1.685v-15.8a.952.952 0 0 0-.952-.951h-.539l3.176-3.05 3.177 3.05h-.54a.952.952 0 0 0-.951.952v13.161c0 .526.426.952.952.952h3.953v3.371z"/><path d="M65 51.38a2.73 2.73 0 0 0-2.727-2.726h-8.528c-.271-6.71-5.815-12.087-12.59-12.087-6.95 0-12.604 5.654-12.604 12.603 0 2.007.459 3.927 1.363 5.705a.952.952 0 0 0 1.698-.863 10.582 10.582 0 0 1-1.156-4.842c0-5.9 4.799-10.698 10.698-10.698 5.9 0 10.698 4.799 10.698 10.698s-4.799 10.698-10.698 10.698c-2.792 0-5.435-1.07-7.44-3.012a.952.952 0 0 0-1.326 1.368 12.539 12.539 0 0 0 9.495 3.527v.522A2.73 2.73 0 0 0 44.61 65h17.663A2.73 2.73 0 0 0 65 62.273v-3.671a2.71 2.71 0 0 0-.66-1.775c.411-.477.66-1.098.66-1.775v-3.671zm-1.904 0v3.672a.824.824 0 0 1-.823.823H51.82a12.52 12.52 0 0 0 1.86-5.317h8.593c.454 0 .823.369.823.823zm0 10.893a.824.824 0 0 1-.823.823H44.61a.824.824 0 0 1-.823-.823v-.778a12.6 12.6 0 0 0 6.562-3.716h11.924c.454 0 .823.369.823.823v3.671zM51.715 15.397h3.2v11.257h-1.953a.952.952 0 0 0-.66 1.64l5.543 5.32a.949.949 0 0 0 1.32 0l5.542-5.32a.952.952 0 0 0-.66-1.64h-1.952v-7.717a.952.952 0 1 0-1.905 0v8.67c0 .526.427.952.953.952h.538l-3.176 3.049-3.177-3.05h.54a.952.952 0 0 0 .951-.951V14.445a.952.952 0 0 0-.952-.952h-3.953v-3.371h6.59c.93 0 1.686.756 1.686 1.685v3.322a.952.952 0 1 0 1.904 0v-3.322c0-1.979-1.61-3.59-3.59-3.59h-6.79c-.94 0-1.704.766-1.704 1.706v3.77c0 .94.765 1.704 1.705 1.704zm-6.719 12.171a2.816 2.816 0 0 0 2.813-2.812V2.813A2.816 2.816 0 0 0 44.996 0H9.06a.952.952 0 1 0 0 1.904h3.97C12.56 5.778 9.253 8.79 5.254 8.79a.952.952 0 0 0-.952.952v8.086c0 .526.426.952.952.952 4 0 7.306 3.012 7.777 6.885H2.813a.91.91 0 0 1-.909-.909V2.814a.91.91 0 0 1 .909-.909h2.441a.952.952 0 1 0 0-1.904H2.813A2.816 2.816 0 0 0 0 2.813v21.943a2.816 2.816 0 0 0 2.813 2.812h42.183zm.908-24.755v21.943a.91.91 0 0 1-.908.908H34.777c.472-3.873 3.778-6.885 7.777-6.885a.952.952 0 0 0 .952-.952V9.741a.952.952 0 0 0-.952-.952c-3.999 0-7.305-3.011-7.777-6.885h10.219a.91.91 0 0 1 .908.909zM6.207 16.92v-6.274c4.612-.45 8.293-4.13 8.743-8.743h17.909c.45 4.613 4.13 8.294 8.743 8.743v6.274c-4.613.45-8.293 4.13-8.743 8.743h-17.91c-.449-4.613-4.13-8.293-8.742-8.743z"/></g><defs><clipPath id="a"><path fill="#fff" d="M0 0h65v65H0z"/></clipPath></defs></svg>