<svg width="77" height="77" viewBox="0 0 77 77" fill="none" xmlns="http://www.w3.org/2000/svg"><g clip-path="url(#a)"><path d="M15.824 25.666h-4.472L8.38 32.462H0v4.667l4.477 4.797-2.47 9.333 2.874 2.875 8.707-4.75 8.707 4.75 2.875-2.875-2.47-9.333 4.477-4.797V32.46h-8.38l-2.973-6.794z" fill="#FFDA44"/><path d="M77 32.46h-8.38l-2.972-6.794h-4.473l-2.972 6.795h-8.38v4.667l4.477 4.797-2.47 9.333 2.874 2.875 8.707-4.75 8.707 4.75 2.875-2.875-2.47-9.333L77 37.128V32.46zm-24.912-21l-4.476 4.8 2.47 9.331-2.875 2.875-8.707-4.748V0h2.236l2.973 6.794h8.38v4.667z" fill="#FF9F22"/><path d="M38.5 0v23.718l-8.708 4.748-2.874-2.875 2.47-9.332-4.477-4.798V6.794h8.38L36.263 0H38.5z" fill="#FFDA44"/><path d="M52.088 61.242v6.7h-6.794V77H38.5V43.03h1.998l11.59 18.212z" fill="#E1EBF0"/><path d="M38.5 43.03V77h-6.795v-9.06h-6.794v-6.699l11.59-18.213H38.5z" fill="#FFF5F5"/></g><defs><clipPath id="a"><path fill="#fff" d="M0 0h77v77H0z"/></clipPath></defs></svg>