<svg width="43" height="43" viewBox="0 0 43 43" fill="none" xmlns="http://www.w3.org/2000/svg"><path d="M23.68 20.053a2.155 2.155 0 0 0-.553-1.02 2.378 2.378 0 0 0-2.346-.536 3.37 3.37 0 0 0-1.508.888 3.134 3.134 0 0 0-.936 2.696c.068.445.273.858.585 1.18.63.591 1.526.796 2.347.536a3.373 3.373 0 0 0 1.508-.888 3.093 3.093 0 0 0 .902-2.856z" fill="#2A90DE"/><path d="M31.669 5.325c4.665 4.813 3.462 13.857-2.688 20.2-3.417 3.525-8.288 4.214-10.88 1.54-1.15-1.186-1.003-3.292.235-4.984a3.134 3.134 0 0 1 .935-2.697c.416-.423.937-.73 1.508-.887-1.358-.807-3.401-.367-4.897 1.176-3.417 3.524-4.085 8.548-1.493 11.222 4.665 4.812 13.432 3.574 19.584-2.77 5.04-5.203 7.584-11.762 7.355-17.535a14.631 14.631 0 0 0-3.637-6.208C32.727-.608 24.76-1.24 17.266 2.014 22.74.627 28.102 1.647 31.67 5.325z" fill="#E36295"/><path d="M8.075 14.168c6.15-6.344 14.919-7.584 19.584-2.772 2.593 2.673 1.924 7.698-1.494 11.222-1.495 1.543-3.539 1.983-4.897 1.175a2.377 2.377 0 0 1-2.346-.531 2.173 2.173 0 0 1-.586-1.181c-1.238 1.692-1.384 3.799-.234 4.985 2.593 2.673 7.463 1.984 10.88-1.54 6.149-6.345 7.353-15.388 2.687-20.2-3.567-3.679-8.93-4.7-14.402-3.312a29.304 29.304 0 0 0-9.055 6.245C1.267 15.245-1.418 24.515.72 31.704.49 25.93 3.034 19.371 8.075 14.168z" fill="#2A90DE"/><path d="M10.38 36.968c-4.666-4.813-3.463-13.857 2.687-20.2 3.416-3.525 8.288-4.214 10.88-1.54.649.722.926 1.706.75 2.664a4.193 4.193 0 0 1-1.018 2.16 3.093 3.093 0 0 1-.902 2.857 3.37 3.37 0 0 1-1.509.888c1.358.807 3.402.367 4.898-1.176 3.417-3.525 4.085-8.549 1.493-11.222-4.665-4.812-13.432-3.571-19.584 2.77C3.035 19.37.491 25.93.72 31.703a14.63 14.63 0 0 0 3.637 6.207c4.961 4.99 12.93 5.623 20.425 2.369-5.473 1.387-10.835.366-14.403-3.312z" fill="#E36295"/><path d="M41.328 10.59c.23 5.774-2.312 12.336-7.354 17.533-6.15 6.344-14.919 7.584-19.584 2.772-2.593-2.673-1.924-7.698 1.493-11.222 1.496-1.543 3.54-1.983 4.897-1.175a2.376 2.376 0 0 1 2.346.535c.275.282.465.635.553 1.02a4.192 4.192 0 0 0 1.019-2.161 3.134 3.134 0 0 0-.751-2.666c-2.593-2.674-7.463-1.984-10.88 1.54-6.15 6.344-7.353 15.387-2.687 20.2 3.565 3.679 8.93 4.7 14.402 3.313a29.302 29.302 0 0 0 9.055-6.245c6.945-6.985 9.63-16.256 7.491-23.444z" fill="#2A90DE"/><path d="M22.19 29.4a6.216 6.216 0 0 1-4.59-1.839c-1.438-1.48-1.286-4.127.35-6.15l1.087.889c-1.17 1.445-1.361 3.324-.438 4.277a4.857 4.857 0 0 0 3.588 1.417 9.15 9.15 0 0 0 6.29-2.957c5.876-6.062 7.082-14.682 2.688-19.215a12.607 12.607 0 0 0-9.309-3.7c-5.484 0-11.242 2.695-15.797 7.393l-.618.634-1.003-.987.618-.634C9.874 3.562 15.996.712 21.856.712A13.975 13.975 0 0 1 32.17 4.834c4.921 5.075 3.714 14.58-2.688 21.184A10.422 10.422 0 0 1 22.19 29.4z" fill="#2A669E"/><path d="M4.46 42.082l-.47-.484c-6.474-6.677-4.867-19.201 3.584-27.917C11.22 9.92 15.858 7.764 20.3 7.764a10.647 10.647 0 0 1 7.861 3.144c2.852 2.941 2.181 8.417-1.494 12.207-1.813 1.871-4.42 2.345-6.063 1.106l.841-1.128c1.066.802 2.918.381 4.219-.962 3.149-3.247 3.818-7.84 1.493-10.238a9.282 9.282 0 0 0-6.857-2.72c-4.065 0-8.34 2.002-11.723 5.492C.653 22.84-.955 34.478 4.993 40.613l.47.484-1.004.985z" fill="#2A669E"/><path d="M20.191 41.582A13.966 13.966 0 0 1 9.877 37.46c-4.922-5.075-3.714-14.58 2.688-21.184a10.416 10.416 0 0 1 7.293-3.383 6.22 6.22 0 0 1 4.59 1.841c1.342 1.384 1.323 3.743-.044 5.738l-1.154-.801c.967-1.41 1.052-3.072.195-3.953a4.857 4.857 0 0 0-3.587-1.416 9.15 9.15 0 0 0-6.29 2.957C7.691 23.32 6.485 31.94 10.88 36.474a12.605 12.605 0 0 0 9.311 3.698c5.485 0 11.243-2.695 15.798-7.393l.618-.638 1.004.987-.62.638c-4.817 4.966-10.94 7.816-16.8 7.816z" fill="#2A669E"/><path d="M21.748 34.531a10.647 10.647 0 0 1-7.861-3.144c-2.852-2.941-2.182-8.417 1.493-12.207 1.814-1.87 4.421-2.346 6.064-1.105l-.841 1.128c-1.065-.803-2.918-.382-4.22.962-3.148 3.247-3.817 7.84-1.493 10.237a9.281 9.281 0 0 0 6.858 2.72c4.064 0 8.34-2.002 11.723-5.492C41.395 19.453 43 7.816 37.055 1.68l-.47-.483L37.588.21l.47.484c6.474 6.677 4.866 19.201-3.584 27.918-3.646 3.763-8.284 5.92-12.726 5.92z" fill="#2A669E"/><path d="M1.401 0h1.402v4.23H1.401V0z" fill="#FABC5F"/><path d="M0 1.41h4.205v1.41H0V1.41zm1.401 10.573h1.402v1.41H1.401v-1.41zm35.741 26.082h1.401v4.229h-1.401v-4.23z" fill="#FABC5F"/><path d="M35.74 39.475h4.205v1.41H35.74v-1.41zM32.236 1.41h1.402v1.41h-1.402V1.41zm8.409 27.49h1.402v1.41h-1.401V28.9zM9.11 40.884h1.402v1.41H9.11v-1.41zM0 16.918h1.402v1.41H0v-1.41zM10.512 0h1.401v1.41h-1.401V0z" fill="#FABC5F"/></svg>