<svg width="34" height="35" viewBox="0 0 34 35" fill="none" xmlns="http://www.w3.org/2000/svg"><path d="M33.37 15.066a16.594 16.594 0 0 0-5.732-10.644l-.057.089A95.018 95.018 0 0 1 4.01 27.329a16.452 16.452 0 0 0 10.966 6.238 79.102 79.102 0 0 1 18.394-18.5z" fill="#2683C9"/><path d="M27.582 4.51l.057-.088a16.44 16.44 0 0 0-5.554-3.11A84.967 84.967 0 0 1 1.108 21.566a16.58 16.58 0 0 0 2.902 5.766A95.002 95.002 0 0 0 27.582 4.51z" fill="#2A90DE"/><path d="M22.087 1.312a16.376 16.376 0 0 0-5.088-.808c-.46 0-.913.024-1.365.062A81.443 81.443 0 0 1 .624 15.09a16.667 16.667 0 0 0 .484 6.474A84.965 84.965 0 0 0 22.087 1.313z" fill="#69CCD7"/><path d="M15.634.565C7.841 1.217 1.574 7.282.625 15.09A81.482 81.482 0 0 0 15.635.565z" fill="#2A90DE"/><path d="M33.048 20.951l-.117.069a49.853 49.853 0 0 0-12.368 12.285c6.169-1.377 11.015-6.172 12.485-12.354z" fill="#2379BA"/><path d="M32.931 21.02l.118-.069c.46-1.926.57-3.92.323-5.885a79.104 79.104 0 0 0-18.395 18.503c1.863.236 3.753.147 5.586-.264A49.845 49.845 0 0 1 32.93 21.02z" fill="#2379BA"/><path d="M27.238 4.091c0 .045.003.089.003.133-.001 12.522-9.05 23.186-21.345 25.153 6.718 6.193 17.155 5.736 23.312-1.02 6.157-6.757 5.703-17.255-1.014-23.449a16.031 16.031 0 0 0-.956-.817z" fill="#2379BA"/><path d="M19.757 33.462c.56-.094 1.114-.218 1.66-.37a49.628 49.628 0 0 1 11.408-11.295c.16-.546.292-1.1.394-1.66a50.738 50.738 0 0 0-13.462 13.325zm13.682-17.73a16.724 16.724 0 0 0-.155-1.298A80.216 80.216 0 0 0 14.348 33.48c.425.07.853.12 1.29.156a79.062 79.062 0 0 1 17.8-17.905zM22.582 1.603a.542.542 0 0 0 .036-.057l.024-.045c-.37-.138-.749-.253-1.132-.364A80.55 80.55 0 0 1 .956 20.977c.093.393.199.781.32 1.162A81.715 81.715 0 0 0 22.581 1.603zm5.459 3.247l.036-.048a17.54 17.54 0 0 0-.873-.738l-.08.109a94.13 94.13 0 0 1-23.458 22.7c.225.308.46.61.703.902A95.281 95.281 0 0 0 28.041 4.851zM16.155.83l.21-.31a16.3 16.3 0 0 0-1.536.132A80.906 80.906 0 0 1 .743 14.283c-.087.509-.15 1.024-.19 1.545l.285-.184A82.076 82.076 0 0 0 16.155.829z" fill="#2A669E"/><path d="M33.332.672c-1.62-1.63-5.29.012-8.062 1.66l-.375.198c.387.213.763.442 1.131.687C29.851.978 31.893.843 32.528 1.482c1.712 1.723-2.757 10.057-11.908 19.262C11.47 29.948 3.185 34.44 1.472 32.72c-.63-.636-.503-2.686 1.723-6.541a16.455 16.455 0 0 1-.673-1.132l-.236.427C.66 28.256-.941 31.912.667 33.53c.506.47 1.182.712 1.87.671 4.119 0 12.229-5.952 18.889-12.647 7.92-7.966 14.78-17.99 11.906-20.882z" fill="#69CCD7"/></svg>