<svg width="38" height="38" viewBox="0 0 38 38" fill="none" xmlns="http://www.w3.org/2000/svg"><path d="M37.543 18.771c0 10.368-8.404 18.772-18.771 18.772C8.404 37.543 0 29.139 0 18.771 0 8.404 8.404 0 18.772 0c10.367 0 18.771 8.404 18.771 18.771z" fill="#F06529"/><path d="M30.419 4.056c0 .05.004.1.004.151C30.42 18.37 20.125 30.431 6.139 32.656c7.642 7.005 19.516 6.489 26.521-1.154 7.005-7.642 6.49-19.517-1.153-26.522-.35-.322-.714-.63-1.088-.924z" fill="#E0561A"/><path d="M23.95 29.775a2.59 2.59 0 1 1 0-5.178 2.59 2.59 0 0 1 0 5.178zm0-3.884a1.294 1.294 0 1 0 0 2.589 1.294 1.294 0 0 0 0-2.589zm-6.23-9.203a12.513 12.513 0 0 0 7.784 2.73h12.024c.007-.215.016-.43.016-.647 0-.216-.01-.432-.016-.647H25.504a11.21 11.21 0 0 1-6.977-2.447 12.508 12.508 0 0 0-7.781-2.731H.926c-.138.425-.262.857-.371 1.294h10.19c2.536.003 4.994.866 6.975 2.448z" fill="#D44A0F"/><path d="M4.926 21.238l.936-1.387a5.41 5.41 0 0 1 4.495-2.374 5.148 5.148 0 0 1 5.179 5.105 3.78 3.78 0 0 1-1.283 2.784 3.759 3.759 0 0 1-3.743 1.008 3.046 3.046 0 0 1-2.022-2.335A2.418 2.418 0 0 1 9.731 21.5a1.902 1.902 0 0 1 1.93-.056c.525.305.85.863.854 1.469h1.295a3.01 3.01 0 0 0-1.497-2.59 3.163 3.163 0 0 0-3.22.05 3.695 3.695 0 0 0-1.877 3.89 4.341 4.341 0 0 0 2.877 3.333c.46.157.943.237 1.43.236a5.41 5.41 0 0 0 3.597-1.51 5.073 5.073 0 0 0 1.71-3.74 6.445 6.445 0 0 0-6.473-6.401 6.705 6.705 0 0 0-5.567 2.945l-.936 1.386a3.242 3.242 0 0 1-2.696 1.423H.271c.074.437.163.869.267 1.295h.62a4.535 4.535 0 0 0 3.768-1.994zm13.758 3.624a8.484 8.484 0 0 1-7.68 4.913v1.295a9.781 9.781 0 0 0 8.856-5.666 4.745 4.745 0 0 1 4.297-2.75h12.982c.09-.425.163-.857.223-1.294H24.157a6.043 6.043 0 0 0-5.473 3.502zm-10.45 9.445h21.077a18.85 18.85 0 0 0 1.683-1.295H6.55c.536.463 1.099.895 1.684 1.295zm15.068-21.362a3.237 3.237 0 1 1 0-6.473 3.237 3.237 0 0 1 0 6.473zm0-5.178a1.942 1.942 0 1 0 0 3.884 1.942 1.942 0 0 0 0-3.884zm-4.994-.512a7.163 7.163 0 0 1 5.642-2.724V3.236a8.451 8.451 0 0 0-6.655 3.214 6.867 6.867 0 0 1-5.407 2.612H2.703c-.254.42-.49.854-.712 1.294h9.898a8.153 8.153 0 0 0 6.42-3.1zm10.372 3.862a.533.533 0 0 0-.046.076 6.646 6.646 0 0 1-5.978 3.695v1.294a7.935 7.935 0 0 0 7.115-4.369 3.417 3.417 0 0 1 2.8-1.457h2.977c-.222-.44-.453-.874-.712-1.294H32.57a4.706 4.706 0 0 0-3.89 2.055zM18.232 2.426A9.545 9.545 0 0 1 20.907.743l1.33-.42a18.906 18.906 0 0 0-2.794-.307c-.745.398-1.44.882-2.072 1.441a9.593 9.593 0 0 1-6.38 2.427H7.344c-.526.404-1.03.837-1.51 1.294h5.157c2.67 0 5.246-.978 7.24-2.752z" fill="#D44A0F"/></svg>