<svg width="49" height="49" viewBox="0 0 49 49" fill="none" xmlns="http://www.w3.org/2000/svg"><path d="M48.933 24.466c0 13.513-10.954 24.467-24.467 24.467C10.954 48.933 0 37.979 0 24.466 0 10.954 10.954 0 24.466 0 37.98 0 48.933 10.954 48.933 24.466z" fill="#C3C9D1"/><path d="M39.647 5.287c0 .066.005.131.005.197C39.65 23.944 26.23 39.664 8 42.563c9.961 9.13 25.437 8.457 34.567-1.504 9.13-9.96 8.457-25.437-1.503-34.567-.457-.42-.93-.822-1.418-1.205z" fill="#B7BDC4"/><path d="M12.758 20.99a2.53 2.53 0 1 1 0-5.062 2.53 2.53 0 0 1 0 5.061zm0-3.375a.844.844 0 1 0 0 1.688.844.844 0 0 0 0-1.688zm-6.75 2.531h1.687v1.687H6.008v-1.687zM17.82 10.022h1.688v1.688H17.82v-1.688zm10.968 6.749h1.687v1.688h-1.687V16.77zm-9.281 15.186a3.375 3.375 0 1 1 0-6.75 3.375 3.375 0 0 1 0 6.75zm0-5.062a1.687 1.687 0 1 0-.001 3.374 1.687 1.687 0 0 0 0-3.374zm22.78 6.75h1.687v1.687h-1.687v-1.688zm-4.22-21.092h1.688v1.687h-1.688v-1.687zm-6.75 30.372h1.688v1.687h-1.688v-1.687zm-19.403-4.219h1.688v1.688h-1.688v-1.688zm20.248-8.436h1.688v1.688h-1.688V30.27zM1.127 23.696a44.09 44.09 0 0 1 9.515-9.997 45.708 45.708 0 0 0 7.068-6.712l2.473-2.908a46.99 46.99 0 0 1 1.087-1.23 16.87 16.87 0 0 1 3.459-2.84c-.17 0-.328-.01-.493-.009a24.59 24.59 0 0 0-2.577.161c-.577.48-1.122.998-1.632 1.548-.384.418-.76.844-1.128 1.277l-2.475 2.909a44.221 44.221 0 0 1-6.806 6.465 45.742 45.742 0 0 0-9.516 9.872A25.363 25.363 0 0 0 0 24.698c0 .184.013.366.02.549l.665-.914.441-.637zm31.271 15.055a45.875 45.875 0 0 0 7.069-6.713l2.473-2.91a44.358 44.358 0 0 1 4.403-4.487l2.5-2.21a24.557 24.557 0 0 0-.234-1.96l-.778.605-2.61 2.301c-1.632 1.443-3.16 3-4.571 4.66l-2.47 2.908a44.198 44.198 0 0 1-6.807 6.465 45.718 45.718 0 0 0-9.88 10.378l-.625.877c.636.094 1.28.158 1.93.202l.084-.122a44.068 44.068 0 0 1 9.516-9.994zm-.962-10.752A47.323 47.323 0 0 0 45.08 14.687l1.062-1.566a25.764 25.764 0 0 0-.951-1.662l-.313.52-1.195 1.76a45.638 45.638 0 0 1-13.16 12.836 47.352 47.352 0 0 0-13.559 13.192l-4.218 6.176c.496.271 1.002.525 1.519.759l4.089-5.99a45.639 45.639 0 0 1 13.082-12.713zm-19.937.629A39.518 39.518 0 0 0 22.972 16.94a37.816 37.816 0 0 1 10.98-11.193L36.59 3.99l.69-.362a24.8 24.8 0 0 0-1.73-.972l-2.532 1.688A39.496 39.496 0 0 0 21.547 16.03a37.83 37.83 0 0 1-10.984 11.195 39.549 39.549 0 0 0-8.329 7.45c.254.55.52 1.097.814 1.62l.112-.121a38.035 38.035 0 0 1 8.339-7.546z" fill="#808B96"/></svg>