<svg width="61" height="61" viewBox="0 0 61 61" fill="none" xmlns="http://www.w3.org/2000/svg"><path d="M30.286 44.162c-7.806 0-14.134-6.291-14.134-14.052 0-7.76 6.328-14.05 14.134-14.05s14.133 6.29 14.133 14.05c-.008 7.758-6.33 14.044-14.133 14.052zm0-26.096c-6.69 0-12.115 5.393-12.115 12.044 0 6.652 5.425 12.044 12.115 12.044S42.4 36.762 42.4 30.11c-.007-6.648-5.427-12.037-12.114-12.044z" fill="#D0D7DF"/><path d="M30.286 52.19c-12.266 0-22.21-9.885-22.21-22.08 0-12.195 9.944-22.08 22.21-22.08s22.21 9.886 22.21 22.08c-.014 12.19-9.949 22.067-22.21 22.08zm0-42.153c-11.152 0-20.191 8.987-20.191 20.073 0 11.087 9.04 20.074 20.191 20.074s20.19-8.987 20.19-20.074c-.013-11.08-9.045-20.06-20.19-20.073z" fill="#D0D7DF"/><path d="M30.286 60.22C13.56 60.22 0 46.74 0 30.11S13.56 0 30.286 0c16.727 0 30.286 13.48 30.286 30.11-.019 16.622-13.567 30.091-30.286 30.11zm0-58.213C14.675 2.007 2.02 14.59 2.02 30.11c0 15.52 12.656 28.103 28.267 28.103 15.612 0 28.267-12.582 28.267-28.103C58.535 14.597 45.89 2.025 30.286 2.007z" fill="#D0D7DF"/><path d="M36.343 30.11c0 3.326-2.712 6.022-6.057 6.022-3.346 0-6.058-2.696-6.058-6.022s2.712-6.022 6.058-6.022c3.345 0 6.057 2.696 6.057 6.022z" fill="#2A90DE"/><path d="M14.133 8.03a3.02 3.02 0 0 1-3.028 3.01 3.02 3.02 0 0 1-3.029-3.01 3.02 3.02 0 0 1 3.028-3.012 3.02 3.02 0 0 1 3.03 3.011zm2.02 34.124a3.02 3.02 0 0 1-3.028 3.01 3.02 3.02 0 0 1-3.03-3.01 3.02 3.02 0 0 1 3.03-3.011 3.02 3.02 0 0 1 3.028 3.01zm29.276-7.026a3.02 3.02 0 0 1-3.03 3.012 3.02 3.02 0 0 1-3.028-3.012 3.02 3.02 0 0 1 3.029-3.01 3.02 3.02 0 0 1 3.029 3.01z" fill="#69CCD7"/></svg>