<svg width="56" height="47" viewBox="0 0 56 47" fill="none" xmlns="http://www.w3.org/2000/svg"><path d="M4.214 23.35h12.782v-2.49H7.18V.375H4.214V23.35zm16.078 0h12.782v-2.49h-9.816V.375h-2.966V23.35zm30.188-3.102c-1.193.58-3.034.954-4.84.954-5.59 0-8.829-3.613-8.829-9.238 0-6.033 3.58-9.476 8.965-9.476 1.909 0 3.51.41 4.636.955l.716-2.42C50.344.613 48.537 0 45.674 0 38.55 0 33.675 4.874 33.675 12.067c0 7.533 4.875 11.623 11.351 11.623 2.795 0 4.977-.545 6.067-1.09l-.613-2.352zM0 32.115l14.382-1.461 4.122 3.896L0 37.634v-5.52zm0-3.895l10.875-.813 2.11 1.948L0 30.654v-2.435z" fill="#9A9A9A"/><path d="M17.206 30.33l11.362-1.137 7.791 3.247-13.31 2.272-5.843-4.383zm8.765 6.492l14.771-2.597L56 40.555l-16.394 6.233-13.635-9.966z" fill="#386897"/></svg>