<svg width="30" height="23" viewBox="0 0 30 23" fill="none" xmlns="http://www.w3.org/2000/svg"><path d="M.626 1.826c4.118 3.487 11.342 9.621 13.466 11.534.285.258.59.39.908.39.317 0 .622-.13.906-.388 2.126-1.914 9.35-8.05 13.468-11.536a.624.624 0 0 0 .088-.863A2.482 2.482 0 0 0 27.5 0h-25C1.733 0 1.018.351.538.963a.625.625 0 0 0 .088.863z" fill="#082854"/><path d="M29.637 3.715a.622.622 0 0 0-.666.09c-4.566 3.871-10.394 8.833-12.227 10.485-1.03.93-2.458.93-3.489-.001-1.954-1.76-8.499-7.324-12.226-10.483A.625.625 0 0 0 0 4.282V20c0 1.379 1.121 2.5 2.5 2.5h25c1.379 0 2.5-1.121 2.5-2.5V4.282a.625.625 0 0 0-.363-.567z" fill="#082854"/></svg>