<svg width="30" height="30" viewBox="0 0 30 30" fill="none" xmlns="http://www.w3.org/2000/svg"><path d="M29.417 23.855l-3.326-2.218-2.957-1.97a1.31 1.31 0 0 0-1.758.285l-1.83 2.352c-.393.51-1.1.657-1.663.345-1.242-.69-2.71-1.34-5.948-4.584-3.24-3.243-3.894-4.706-4.584-5.948a1.303 1.303 0 0 1 .345-1.663l2.352-1.83a1.31 1.31 0 0 0 .285-1.758L8.423 4 6.145.583A1.31 1.31 0 0 0 4.382.187L1.755 1.763A3.21 3.21 0 0 0 .297 3.649c-.718 2.62-.863 8.397 8.397 17.657s15.038 9.115 17.657 8.397a3.21 3.21 0 0 0 1.886-1.458l1.576-2.627a1.31 1.31 0 0 0-.396-1.763zm-12.348-19.2a8.803 8.803 0 0 1 8.793 8.793.517.517 0 0 0 1.034 0c-.006-5.425-4.402-9.821-9.827-9.827a.517.517 0 0 0 0 1.034z" fill="#082854"/><path d="M17.069 7.758a5.696 5.696 0 0 1 5.69 5.69.517.517 0 0 0 1.034 0 6.732 6.732 0 0 0-6.724-6.724.517.517 0 1 0 0 1.034z" fill="#082854"/><path d="M17.069 10.862a2.59 2.59 0 0 1 2.586 2.586.517.517 0 1 0 1.034 0 3.625 3.625 0 0 0-3.62-3.62.517.517 0 0 0 0 1.034z" fill="#082854"/></svg>