<svg width="50" height="50" viewBox="0 0 50 50" fill="none" xmlns="http://www.w3.org/2000/svg"><mask id="a" maskUnits="userSpaceOnUse" x="0" y="0" width="50" height="50"><path d="M39.648 45.508h-4.804l-.976-2.93H16.132l-.976 2.93h-4.804a1.464 1.464 0 1 0 0 2.93h29.296a1.464 1.464 0 1 0 0-2.93zm0-35.156a1.466 1.466 0 1 0 .002 2.931 1.466 1.466 0 0 0-.002-2.931z" fill="#000"/><path d="M45.508 1.563H4.395A4.4 4.4 0 0 0 0 5.957v24.902h8.887v-4.394c0-.81.655-1.465 1.465-1.465h2.263c.151-.426.325-.844.52-1.255l-1.6-1.602a1.464 1.464 0 0 1 0-2.071l4.142-4.143a1.464 1.464 0 0 1 2.072 0l1.602 1.602c.41-.196.828-.37 1.255-.522v-2.263c0-.81.655-1.465 1.464-1.465h5.86c.81 0 1.465.656 1.465 1.465v2.263c.426.152.844.326 1.254.522l1.602-1.602a1.465 1.465 0 0 1 2.072 0l4.142 4.143c.573.572.573 1.5 0 2.071l-1.6 1.602c.195.411.369.829.52 1.255h2.263c.81 0 1.465.655 1.465 1.465v4.394H50V5.957c0-2.423-2.07-4.394-4.492-4.394zm-5.86 14.648a4.4 4.4 0 0 1-4.394-4.395 4.4 4.4 0 0 1 4.394-4.394 4.4 4.4 0 0 1 4.395 4.394 4.4 4.4 0 0 1-4.395 4.395z" fill="#000"/><path d="M20.605 29.395c0 .506.117.994.285 1.464h8.22c.168-.47.285-.958.285-1.465A4.4 4.4 0 0 0 25 25a4.4 4.4 0 0 0-4.395 4.395z" fill="#000"/><path d="M15.115 26.831a1.466 1.466 0 0 1-1.42 1.099h-1.879v2.93h6.052c-.098-.483-.192-.968-.192-1.465 0-4.039 3.286-7.325 7.324-7.325s7.324 3.286 7.324 7.325c0 .497-.094.982-.192 1.464h6.052v-2.93h-1.88a1.466 1.466 0 0 1-1.419-1.098 10.066 10.066 0 0 0-1.084-2.61 1.466 1.466 0 0 1 .225-1.78l1.332-1.333-2.071-2.072-1.333 1.333a1.459 1.459 0 0 1-1.781.225 10.07 10.07 0 0 0-2.61-1.085 1.466 1.466 0 0 1-1.098-1.419v-1.88h-2.93v1.88c0 .669-.452 1.252-1.099 1.42-.91.233-1.786.6-2.609 1.084a1.46 1.46 0 0 1-1.78-.225l-1.334-1.333-2.071 2.072 1.332 1.333c.471.472.565 1.204.226 1.78a10.066 10.066 0 0 0-1.085 2.61zM0 35.254a4.4 4.4 0 0 0 4.395 4.394h41.113c2.423 0 4.492-1.971 4.492-4.394v-1.465H0v1.465z" fill="#000"/></mask><g mask="url(#a)"><path fill="url(#b)" d="M-8-11h67v65H-8z"/></g><defs><linearGradient id="b" x1="25.5" y1="-11" x2="25.5" y2="54" gradientUnits="userSpaceOnUse"><stop stop-color="#5458FF"/><stop offset="1" stop-color="#01BFFF"/></linearGradient></defs></svg>