<svg width="54" height="50" viewBox="0 0 54 50" fill="none" xmlns="http://www.w3.org/2000/svg"><path d="M51.982.04h-21.86a1.56 1.56 0 0 0-1.56 1.56v4.68H17.343c-.646-1.813-2.363-3.12-4.396-3.12a4.687 4.687 0 0 0-4.684 4.68c0 2.03 1.31 3.746 3.123 4.392V25H2.018a1.56 1.56 0 0 0-1.56 1.56v15.6c0 .863.698 1.56 1.56 1.56h21.86a1.56 1.56 0 0 0 1.56-1.56v-4.68h11.218c.647 1.812 2.363 3.12 4.396 3.12a4.687 4.687 0 0 0 4.684-4.68c0-2.03-1.309-3.746-3.122-4.392V25h3.122a1.56 1.56 0 0 0 1.516-1.938l-.296-1.182H35.148l-.296 1.182A1.56 1.56 0 0 0 36.368 25h3.123v6.528a4.677 4.677 0 0 0-2.835 2.832H25.439v-7.8A1.56 1.56 0 0 0 23.877 25H14.51V12.232A4.677 4.677 0 0 0 17.344 9.4h11.217v7.8c0 .863.699 1.56 1.562 1.56h21.859a1.56 1.56 0 0 0 1.561-1.56V1.6A1.56 1.56 0 0 0 51.982.04zm-33.13 46.8H7.044l-.296 1.183a1.56 1.56 0 0 0 1.516 1.938h9.368a1.56 1.56 0 0 0 1.515-1.938l-.295-1.182z" fill="url(#a)"/><defs><linearGradient id="a" x1="27" y1="49.961" x2="27" y2=".039" gradientUnits="userSpaceOnUse"><stop stop-color="#FFDE00"/><stop offset="1" stop-color="#FD5900"/></linearGradient></defs></svg>