<svg width="50" height="50" viewBox="0 0 50 50" fill="none" xmlns="http://www.w3.org/2000/svg"><path d="M5.957 20.508a4.4 4.4 0 0 0 4.306-5.27l5.453-3.272a7.279 7.279 0 0 0 3.425 2.31v16.486a1.465 1.465 0 1 1-2.93 0v-7.325a2.93 2.93 0 1 0-5.86 0v10.756c0 4.037 2.951 5.764 3.714 6.748 1.383 1.383 2.146 3.32 2.146 5.278v2.316c0 .81.655 1.465 1.465 1.465h23.437c.81 0 1.465-.655 1.465-1.465v-3.288c0-4.455 2.93-5.943 2.93-12.084V19.776a2.197 2.197 0 0 0-4.395 0v8.057a1.465 1.465 0 1 1-2.93 0V16.846a2.197 2.197 0 0 0-4.394 0v8.056a1.464 1.464 0 1 1-2.93 0v-8.056a2.197 2.197 0 0 0-4.394 0v8.056a1.465 1.465 0 1 1-2.93 0V14.276a7.29 7.29 0 0 0 4.735-4.693l11.48 1.594a4.4 4.4 0 0 0 4.293 3.471 4.4 4.4 0 0 0 4.395-4.394 4.4 4.4 0 0 0-4.395-4.395c-1.707 0-3.174.99-3.901 2.415L28.596 6.671C28.261 2.937 25.16 0 21.338 0a7.324 7.324 0 0 0-7.324 7.324c0 .717.135 1.396.327 2.051l-5.605 3.362a4.351 4.351 0 0 0-2.779-1.018 4.4 4.4 0 0 0-4.394 4.394 4.4 4.4 0 0 0 4.394 4.395zM21.337 2.93a4.4 4.4 0 0 1 4.395 4.394c0 1.62-.89 3.021-2.197 3.783v-3.05a2.197 2.197 0 0 0-4.394 0v3.05c-1.308-.762-2.198-2.163-2.198-3.783a4.4 4.4 0 0 1 4.395-4.394z" fill="url(#a)"/><defs><linearGradient id="a" x1="25" x2="25" y2="50" gradientUnits="userSpaceOnUse"><stop stop-color="#01B59C"/><stop offset="1" stop-color="#83F3A9"/></linearGradient></defs></svg>