<svg width="65" height="65" viewBox="0 0 65 65" fill="none" xmlns="http://www.w3.org/2000/svg"><g clip-path="url(#a)" fill="#082854"><path d="M16.295 19.842h18.72a.952.952 0 1 0 0-1.904h-18.72a.952.952 0 1 0 0 1.904zm0 7.916h18.72a.952.952 0 1 0 0-1.904h-18.72a.952.952 0 1 0 0 1.904zm18.117 20.718c0 2.013 2.724 3.53 6.336 3.53 3.613 0 6.337-1.517 6.337-3.53s-2.724-3.531-6.337-3.531c-3.612 0-6.336 1.518-6.336 3.53zm10.768 0c0 .573-1.682 1.626-4.432 1.626-2.749 0-4.431-1.053-4.431-1.626 0-.574 1.682-1.627 4.431-1.627 2.75 0 4.432 1.053 4.432 1.627zm13.928-2.579a.952.952 0 0 0-.953-.952h-7.1a.952.952 0 1 0 0 1.904h7.1a.952.952 0 0 0 .953-.952zm-4.245 4.293h3.293a.952.952 0 1 0 0-1.905h-3.293a.952.952 0 1 0 0 1.905z"/><path d="M61.537 31.47H50.113V8.608a4.17 4.17 0 0 0-4.166-4.166H37.81V3.15A3.153 3.153 0 0 0 34.66 0h-2.837a.952.952 0 1 0 0 1.904h2.838c.686 0 1.245.559 1.245 1.246v4.467c0 .687-.559 1.245-1.245 1.245h-2.437a2.677 2.677 0 0 0-2.674 2.675.77.77 0 0 1-.77.77h-6.248a.77.77 0 0 1-.77-.77c0-1.475-1.2-2.675-2.674-2.675H16.65a1.247 1.247 0 0 1-1.246-1.245V3.15c0-.687.559-1.246 1.246-1.246h11.364a.952.952 0 1 0 0-1.904H16.651a3.154 3.154 0 0 0-3.15 3.15v1.293H5.362A4.17 4.17 0 0 0 1.197 8.61v52.226A4.17 4.17 0 0 0 5.362 65h40.585a4.17 4.17 0 0 0 4.166-4.165v-5.497h5.386a.952.952 0 1 0 0-1.905H32.617a.362.362 0 0 1-.362-.361V42.184h29.643V53.07c0 .2-.162.362-.361.362h-2.231a.952.952 0 1 0 0 1.905h2.23a2.269 2.269 0 0 0 2.267-2.267V33.736a2.269 2.269 0 0 0-2.266-2.266zm.361 2.266v3.037H32.255v-3.038c0-.199.162-.361.362-.361h28.92c.2 0 .361.162.361.361zM45.948 6.348a2.264 2.264 0 0 1 2.26 2.26V31.47h-1.904V10.198a1.948 1.948 0 0 0-1.945-1.945h-6.614c.103-.502.05-.78.065-1.904h8.137zm-13.331 48.99H44.4v3.908a.041.041 0 0 1-.041.041H6.95a.041.041 0 0 1-.04-.04V51.79a.952.952 0 1 0-1.905 0v7.455c0 1.073.873 1.945 1.945 1.945h37.41a1.948 1.948 0 0 0 1.945-1.945v-3.908h1.904v5.497a2.264 2.264 0 0 1-2.26 2.26H5.361a2.264 2.264 0 0 1-2.26-2.26V8.609a2.263 2.263 0 0 1 2.26-2.261H13.5c.015 1.106-.039 1.402.065 1.904H6.95a1.948 1.948 0 0 0-1.945 1.945v37.787a.952.952 0 1 0 1.904 0V10.197c0-.022.019-.04.041-.04h7.839c.521.383 1.165.61 1.86.61h2.436a.77.77 0 0 1 .77.77c0 1.474 1.2 2.674 2.675 2.674h6.248c1.474 0 2.674-1.2 2.674-2.674a.77.77 0 0 1 .77-.77h2.436a3.13 3.13 0 0 0 1.86-.61h7.84a.04.04 0 0 1 .04.04V31.47H32.616a2.269 2.269 0 0 0-2.266 2.266v.034H16.295a.952.952 0 1 0 0 1.904H30.35v6.012H16.296a.952.952 0 1 0 0 1.904H30.35v6.012H16.296a.952.952 0 1 0 0 1.904H30.35v1.566a2.269 2.269 0 0 0 2.267 2.266zm-.362-15.057v-1.604h29.643v1.604H32.255z"/><path d="M28.015 4.723h-4.72a.952.952 0 1 0 0 1.905h4.72a.952.952 0 1 0 0-1.905z"/></g><defs><clipPath id="a"><path fill="#fff" d="M0 0h65v65H0z"/></clipPath></defs></svg>