<svg width="65" height="65" viewBox="0 0 65 65" fill="none" xmlns="http://www.w3.org/2000/svg"><g clip-path="url(#a)" fill="#082854"><path d="M13.32 46.866a.948.948 0 0 0 1.347-.022l10.526-10.875a.952.952 0 1 0-1.368-1.324L13.299 45.52a.952.952 0 0 0 .022 1.346zm2.393-8.209c.38.148.775.221 1.174.221.554 0 1.114-.142 1.644-.423.863-.459 1.544-1.24 1.919-2.201.793-2.034-.042-4.266-1.86-4.975-1.819-.709-3.944.37-4.737 2.403-.374.96-.402 1.997-.077 2.92.343.972 1.03 1.702 1.937 2.055zm-.086-4.283c.335-.859 1.071-1.41 1.787-1.41.164 0 .327.028.484.09.84.327 1.189 1.453.777 2.508-.209.537-.578.967-1.038 1.211-.413.22-.85.259-1.232.11-.382-.149-.678-.474-.833-.915-.173-.492-.154-1.058.055-1.594zm6.866 8.668c-.906-.353-1.907-.281-2.817.203-.863.458-1.544 1.24-1.919 2.2-.793 2.034.041 4.266 1.86 4.975.38.148.772.218 1.162.218 1.485 0 2.947-1.01 3.574-2.62.375-.962.402-1.998.077-2.92-.342-.972-1.03-1.702-1.937-2.056zm.086 4.283c-.412 1.056-1.43 1.648-2.27 1.32-.84-.327-1.19-1.452-.778-2.508.21-.536.578-.966 1.039-1.211.248-.132.505-.198.753-.198.165 0 .326.029.479.088.381.15.677.474.832.915.174.492.154 1.058-.055 1.594zM48.4 33.75l-2.41 14.94a.952.952 0 0 0 1.88.303l2.408-14.942a.952.952 0 0 0-1.88-.303zM46.552 37c-.242-1.002-.813-1.867-1.607-2.437-.837-.601-1.82-.806-2.765-.577-1.897.459-3.022 2.559-2.509 4.68.243 1.003.814 1.869 1.608 2.438.614.441 1.305.669 2.003.669.254 0 .51-.03.762-.091.945-.23 1.725-.86 2.195-1.779.445-.87.556-1.9.313-2.903zm-2.009 2.036c-.213.416-.55.698-.947.795-.398.096-.827 0-1.207-.274-.424-.304-.731-.78-.867-1.338-.267-1.102.23-2.17 1.106-2.383a1.3 1.3 0 0 1 .306-.036c.305 0 .617.106.9.31.424.304.732.78.868 1.339.135.559.079 1.123-.159 1.587zm5.062 7.042c.446 1.843 1.983 3.105 3.622 3.105.25 0 .5-.029.75-.09 1.897-.459 3.023-2.56 2.509-4.68-.514-2.122-2.475-3.475-4.372-3.016-.946.23-1.726.86-2.195 1.779-.445.87-.557 1.9-.314 2.902zm2.009-2.035c.213-.416.55-.699.948-.795.103-.025.206-.037.31-.037.776 0 1.528.678 1.763 1.65.267 1.1-.23 2.17-1.106 2.382-.876.21-1.807-.511-2.074-1.613-.135-.559-.079-1.123.159-1.587z"/><path d="M64.9 56.222l-8.914-36.81a3.542 3.542 0 0 0-1.803-2.305l-1.855-.97a.952.952 0 0 0-.882 1.689l1.856.969c.418.218.722.607.833 1.066l8.914 36.81a1.64 1.64 0 0 1-1.206 1.977l-18.177 4.401a1.64 1.64 0 0 1-1.977-1.206l-8.911-36.798a1.636 1.636 0 0 1 .261-1.34l7.247-10.103c.721 1.373 1.236 2.936 1.36 4.681l-.302.073a.952.952 0 1 0 .448 1.85l2.117-.512a.952.952 0 0 0-.391-1.861 13.772 13.772 0 0 0-1.412-4.853c.094.028.187.066.277.113l5.672 2.962a.952.952 0 0 0 .881-1.688l-5.672-2.962a3.53 3.53 0 0 0-2.287-.336 18.63 18.63 0 0 0-2.315-2.737 22.346 22.346 0 0 0-4.309-3.296V.952a.952.952 0 1 0-1.904 0v4.156c-3.556 2.613-6.097 6.87-7.363 12.352-.176.76-.316 1.493-.428 2.188l-7.076-2.759a2.753 2.753 0 0 0-2.121.045c-.678.297-1.2.841-1.469 1.531L.19 53.868a2.775 2.775 0 0 0 1.575 3.59l6.564 2.559a.948.948 0 0 0 1.233-.541.952.952 0 0 0-.54-1.233l-6.565-2.56a.87.87 0 0 1-.493-1.123l13.802-35.403a.863.863 0 0 1 .46-.48.862.862 0 0 1 .664-.013l7.51 2.927a33.578 33.578 0 0 0-.164 2.33.952.952 0 0 0-.418 1.837l.998.389.005.002 1.027.4a.952.952 0 0 0 .692-1.774l-.412-.16c.006-.51.033-1.308.121-2.302l4.622 1.801a3.54 3.54 0 0 0 .056 1.38l2.287 9.444L22.44 62.543a.87.87 0 0 1-1.124.494l-8.748-3.41a.951.951 0 1 0-.692 1.773l8.748 3.411a2.777 2.777 0 0 0 3.59-1.576l9.782-25.065 5.842 24.122a3.548 3.548 0 0 0 4.276 2.609l18.177-4.402a3.547 3.547 0 0 0 2.609-4.277zM33.464 6.724c1.092.644 3.777 2.407 5.782 5.2-.183.165-.351.35-.499.557l-7.096 9.893-5.169-2.015c.626-4.211 2.338-10.154 6.982-13.635z"/></g><defs><clipPath id="a"><path fill="#fff" d="M0 0h65v65H0z"/></clipPath></defs></svg>